<svg width="319" height="181" viewBox="0 0 319 181" fill="none" xmlns="http://www.w3.org/2000/svg">
<mask id="path-1-outside-1_11_5" maskUnits="userSpaceOnUse" x="4" y="47" width="295" height="109" fill="black">
<rect fill="white" x="4" y="47" width="295" height="109"/>
<path d="M8.09091 150V56.9091H44.8182C51.8788 56.9091 57.8939 58.2576 62.8636 60.9545C67.8333 63.6212 71.6212 67.3333 74.2273 72.0909C76.8636 76.8182 78.1818 82.2727 78.1818 88.4545C78.1818 94.6364 76.8485 100.091 74.1818 104.818C71.5152 109.545 67.6515 113.227 62.5909 115.864C57.5606 118.5 51.4697 119.818 44.3182 119.818H20.9091V104.045H41.1364C44.9242 104.045 48.0455 103.394 50.5 102.091C52.9849 100.758 54.8333 98.9242 56.0455 96.5909C57.2879 94.2273 57.9091 91.5151 57.9091 88.4545C57.9091 85.3636 57.2879 82.6667 56.0455 80.3636C54.8333 78.0303 52.9849 76.2273 50.5 74.9545C48.0152 73.6515 44.8636 73 41.0455 73H27.7727V150H8.09091ZM115.036 151.318C110.582 151.318 106.612 150.545 103.127 149C99.6424 147.424 96.8849 145.106 94.8545 142.045C92.8545 138.955 91.8545 135.106 91.8545 130.5C91.8545 126.621 92.5667 123.364 93.9909 120.727C95.4152 118.091 97.3545 115.97 99.8091 114.364C102.264 112.758 105.052 111.545 108.173 110.727C111.324 109.909 114.627 109.333 118.082 109C122.142 108.576 125.415 108.182 127.9 107.818C130.385 107.424 132.188 106.848 133.309 106.091C134.43 105.333 134.991 104.212 134.991 102.727V102.455C134.991 99.5758 134.082 97.3485 132.264 95.7727C130.476 94.197 127.93 93.4091 124.627 93.4091C121.142 93.4091 118.37 94.1818 116.309 95.7273C114.248 97.2424 112.885 99.1515 112.218 101.455L94.3091 100C95.2182 95.7576 97.0061 92.0909 99.6727 89C102.339 85.8788 105.779 83.4848 109.991 81.8182C114.233 80.1212 119.142 79.2727 124.718 79.2727C128.597 79.2727 132.309 79.7273 135.855 80.6364C139.43 81.5455 142.597 82.9545 145.355 84.8636C148.142 86.7727 150.339 89.2273 151.945 92.2273C153.552 95.197 154.355 98.7576 154.355 102.909V150H135.991V140.318H135.445C134.324 142.5 132.824 144.424 130.945 146.091C129.067 147.727 126.809 149.015 124.173 149.955C121.536 150.864 118.491 151.318 115.036 151.318ZM120.582 137.955C123.43 137.955 125.945 137.394 128.127 136.273C130.309 135.121 132.021 133.576 133.264 131.636C134.506 129.697 135.127 127.5 135.127 125.045V117.636C134.521 118.03 133.688 118.394 132.627 118.727C131.597 119.03 130.43 119.318 129.127 119.591C127.824 119.833 126.521 120.061 125.218 120.273C123.915 120.455 122.733 120.621 121.673 120.773C119.4 121.106 117.415 121.636 115.718 122.364C114.021 123.091 112.703 124.076 111.764 125.318C110.824 126.53 110.355 128.045 110.355 129.864C110.355 132.5 111.309 134.515 113.218 135.909C115.158 137.273 117.612 137.955 120.582 137.955ZM212.914 80.1818V94.7273H170.868V80.1818H212.914ZM180.414 63.4545H199.777V128.545C199.777 130.333 200.05 131.727 200.595 132.727C201.141 133.697 201.898 134.379 202.868 134.773C203.868 135.167 205.02 135.364 206.323 135.364C207.232 135.364 208.141 135.288 209.05 135.136C209.959 134.955 210.656 134.818 211.141 134.727L214.186 149.136C213.217 149.439 211.853 149.788 210.095 150.182C208.338 150.606 206.202 150.864 203.686 150.955C199.02 151.136 194.929 150.515 191.414 149.091C187.929 147.667 185.217 145.455 183.277 142.455C181.338 139.455 180.383 135.667 180.414 131.091V63.4545ZM252.791 56.9091V150H233.427V56.9091H252.791ZM274.702 150V80.1818H294.066V150H274.702ZM284.43 71.1818C281.551 71.1818 279.081 70.2273 277.02 68.3182C274.99 66.3788 273.975 64.0606 273.975 61.3636C273.975 58.697 274.99 56.4091 277.02 54.5C279.081 52.5606 281.551 51.5909 284.43 51.5909C287.308 51.5909 289.763 52.5606 291.793 54.5C293.854 56.4091 294.884 58.697 294.884 61.3636C294.884 64.0606 293.854 66.3788 291.793 68.3182C289.763 70.2273 287.308 71.1818 284.43 71.1818Z"/>
</mask>
<path d="M8.09091 150V56.9091H44.8182C51.8788 56.9091 57.8939 58.2576 62.8636 60.9545C67.8333 63.6212 71.6212 67.3333 74.2273 72.0909C76.8636 76.8182 78.1818 82.2727 78.1818 88.4545C78.1818 94.6364 76.8485 100.091 74.1818 104.818C71.5152 109.545 67.6515 113.227 62.5909 115.864C57.5606 118.5 51.4697 119.818 44.3182 119.818H20.9091V104.045H41.1364C44.9242 104.045 48.0455 103.394 50.5 102.091C52.9849 100.758 54.8333 98.9242 56.0455 96.5909C57.2879 94.2273 57.9091 91.5151 57.9091 88.4545C57.9091 85.3636 57.2879 82.6667 56.0455 80.3636C54.8333 78.0303 52.9849 76.2273 50.5 74.9545C48.0152 73.6515 44.8636 73 41.0455 73H27.7727V150H8.09091ZM115.036 151.318C110.582 151.318 106.612 150.545 103.127 149C99.6424 147.424 96.8849 145.106 94.8545 142.045C92.8545 138.955 91.8545 135.106 91.8545 130.5C91.8545 126.621 92.5667 123.364 93.9909 120.727C95.4152 118.091 97.3545 115.97 99.8091 114.364C102.264 112.758 105.052 111.545 108.173 110.727C111.324 109.909 114.627 109.333 118.082 109C122.142 108.576 125.415 108.182 127.9 107.818C130.385 107.424 132.188 106.848 133.309 106.091C134.43 105.333 134.991 104.212 134.991 102.727V102.455C134.991 99.5758 134.082 97.3485 132.264 95.7727C130.476 94.197 127.93 93.4091 124.627 93.4091C121.142 93.4091 118.37 94.1818 116.309 95.7273C114.248 97.2424 112.885 99.1515 112.218 101.455L94.3091 100C95.2182 95.7576 97.0061 92.0909 99.6727 89C102.339 85.8788 105.779 83.4848 109.991 81.8182C114.233 80.1212 119.142 79.2727 124.718 79.2727C128.597 79.2727 132.309 79.7273 135.855 80.6364C139.43 81.5455 142.597 82.9545 145.355 84.8636C148.142 86.7727 150.339 89.2273 151.945 92.2273C153.552 95.197 154.355 98.7576 154.355 102.909V150H135.991V140.318H135.445C134.324 142.5 132.824 144.424 130.945 146.091C129.067 147.727 126.809 149.015 124.173 149.955C121.536 150.864 118.491 151.318 115.036 151.318ZM120.582 137.955C123.43 137.955 125.945 137.394 128.127 136.273C130.309 135.121 132.021 133.576 133.264 131.636C134.506 129.697 135.127 127.5 135.127 125.045V117.636C134.521 118.03 133.688 118.394 132.627 118.727C131.597 119.03 130.43 119.318 129.127 119.591C127.824 119.833 126.521 120.061 125.218 120.273C123.915 120.455 122.733 120.621 121.673 120.773C119.4 121.106 117.415 121.636 115.718 122.364C114.021 123.091 112.703 124.076 111.764 125.318C110.824 126.53 110.355 128.045 110.355 129.864C110.355 132.5 111.309 134.515 113.218 135.909C115.158 137.273 117.612 137.955 120.582 137.955ZM212.914 80.1818V94.7273H170.868V80.1818H212.914ZM180.414 63.4545H199.777V128.545C199.777 130.333 200.05 131.727 200.595 132.727C201.141 133.697 201.898 134.379 202.868 134.773C203.868 135.167 205.02 135.364 206.323 135.364C207.232 135.364 208.141 135.288 209.05 135.136C209.959 134.955 210.656 134.818 211.141 134.727L214.186 149.136C213.217 149.439 211.853 149.788 210.095 150.182C208.338 150.606 206.202 150.864 203.686 150.955C199.02 151.136 194.929 150.515 191.414 149.091C187.929 147.667 185.217 145.455 183.277 142.455C181.338 139.455 180.383 135.667 180.414 131.091V63.4545ZM252.791 56.9091V150H233.427V56.9091H252.791ZM274.702 150V80.1818H294.066V150H274.702ZM284.43 71.1818C281.551 71.1818 279.081 70.2273 277.02 68.3182C274.99 66.3788 273.975 64.0606 273.975 61.3636C273.975 58.697 274.99 56.4091 277.02 54.5C279.081 52.5606 281.551 51.5909 284.43 51.5909C287.308 51.5909 289.763 52.5606 291.793 54.5C293.854 56.4091 294.884 58.697 294.884 61.3636C294.884 64.0606 293.854 66.3788 291.793 68.3182C289.763 70.2273 287.308 71.1818 284.43 71.1818Z" fill="#191919"/>
<path d="M8.09091 150H4.09091V154H8.09091V150ZM8.09091 56.9091V52.9091H4.09091V56.9091H8.09091ZM62.8636 60.9545L60.9557 64.4702L60.964 64.4747L60.9724 64.4792L62.8636 60.9545ZM74.2273 72.0909L70.7191 74.0126L70.7264 74.0259L70.7338 74.0392L74.2273 72.0909ZM62.5909 115.864L60.7428 112.316L60.7341 112.321L62.5909 115.864ZM20.9091 119.818H16.9091V123.818H20.9091V119.818ZM20.9091 104.045V100.045H16.9091V104.045H20.9091ZM50.5 102.091L52.3756 105.624L52.3834 105.62L52.3913 105.616L50.5 102.091ZM56.0455 96.5909L52.5048 94.7298L52.5003 94.7384L52.4958 94.7469L56.0455 96.5909ZM56.0455 80.3636L52.4958 82.2076L52.5102 82.2353L52.5251 82.2628L56.0455 80.3636ZM50.5 74.9545L48.6424 78.497L48.6594 78.506L48.6765 78.5147L50.5 74.9545ZM27.7727 73V69H23.7727V73H27.7727ZM27.7727 150V154H31.7727V150H27.7727ZM12.0909 150V56.9091H4.09091V150H12.0909ZM8.09091 60.9091H44.8182V52.9091H8.09091V60.9091ZM44.8182 60.9091C51.3754 60.9091 56.7 62.1607 60.9557 64.4702L64.7715 57.4389C59.0879 54.3545 52.3822 52.9091 44.8182 52.9091V60.9091ZM60.9724 64.4792C65.2878 66.7948 68.5006 69.9626 70.7191 74.0126L77.7354 70.1692C74.7418 64.7041 70.3789 60.4476 64.7549 57.4299L60.9724 64.4792ZM70.7338 74.0392C72.9933 78.0906 74.1818 82.8565 74.1818 88.4545H82.1818C82.1818 81.6889 80.734 75.5458 77.7207 70.1426L70.7338 74.0392ZM74.1818 88.4545C74.1818 94.0449 72.9815 98.8046 70.6979 102.853L77.6657 106.783C80.7154 101.377 82.1818 95.2278 82.1818 88.4545H74.1818ZM70.6979 102.853C68.4319 106.87 65.1536 110.018 60.7428 112.316L64.439 119.411C70.1495 116.436 74.5984 112.221 77.6657 106.783L70.6979 102.853ZM60.7341 112.321C56.4061 114.589 50.9869 115.818 44.3182 115.818V123.818C51.9525 123.818 58.7151 122.411 64.4477 119.407L60.7341 112.321ZM44.3182 115.818H20.9091V123.818H44.3182V115.818ZM24.9091 119.818V104.045H16.9091V119.818H24.9091ZM20.9091 108.045H41.1364V100.045H20.9091V108.045ZM41.1364 108.045C45.352 108.045 49.1721 107.325 52.3756 105.624L48.6244 98.5579C46.9188 99.4633 44.4965 100.045 41.1364 100.045V108.045ZM52.3913 105.616C55.5314 103.931 57.9846 101.535 59.5951 98.4349L52.4958 94.7469C51.6821 96.3134 50.4383 97.5845 48.6087 98.5663L52.3913 105.616ZM59.5861 98.452C61.1717 95.4355 61.9091 92.0681 61.9091 88.4545H53.9091C53.9091 90.9622 53.404 93.0191 52.5048 94.7298L59.5861 98.452ZM61.9091 88.4545C61.9091 84.8208 61.1756 81.4483 59.5659 78.4645L52.5251 82.2628C53.4002 83.885 53.9091 85.9065 53.9091 88.4545H61.9091ZM59.5951 78.5197C57.9755 75.402 55.4996 73.0212 52.3235 71.3944L48.6765 78.5147C50.4701 79.4334 51.6912 80.6586 52.4958 82.2076L59.5951 78.5197ZM52.3576 71.4121C49.1307 69.7199 45.2883 69 41.0455 69V77C44.4389 77 46.8996 77.5831 48.6424 78.497L52.3576 71.4121ZM41.0455 69H27.7727V77H41.0455V69ZM23.7727 73V150H31.7727V73H23.7727ZM27.7727 146H8.09091V154H27.7727V146ZM103.127 149L101.479 152.645L101.492 152.651L101.506 152.657L103.127 149ZM94.8545 142.045L91.4963 144.218L91.5087 144.238L91.5213 144.257L94.8545 142.045ZM93.9909 120.727L90.4716 118.826L93.9909 120.727ZM99.8091 114.364L97.619 111.016L99.8091 114.364ZM108.173 110.727L107.168 106.856L107.158 106.858L108.173 110.727ZM118.082 109L118.466 112.982L118.482 112.98L118.497 112.978L118.082 109ZM127.9 107.818L128.479 111.776L128.503 111.773L128.526 111.769L127.9 107.818ZM133.309 106.091L131.07 102.777H131.07L133.309 106.091ZM132.264 95.7727L129.619 98.7736L129.631 98.7846L129.644 98.7955L132.264 95.7727ZM116.309 95.7273L118.679 98.9499L118.694 98.9386L118.709 98.9273L116.309 95.7273ZM112.218 101.455L111.894 105.441L115.152 105.706L116.06 102.567L112.218 101.455ZM94.3091 100L90.3979 99.1619L89.443 103.618L93.9853 103.987L94.3091 100ZM99.6727 89L102.701 91.6129L102.708 91.6056L102.714 91.5983L99.6727 89ZM109.991 81.8182L111.463 85.5376L111.47 85.5349L111.476 85.5321L109.991 81.8182ZM135.855 80.6364L134.861 84.511L134.869 84.513L135.855 80.6364ZM145.355 84.8636L143.078 88.1524L143.086 88.1582L143.095 88.164L145.355 84.8636ZM151.945 92.2273L148.419 94.1152L148.423 94.1226L148.427 94.1301L151.945 92.2273ZM154.355 150V154H158.355V150H154.355ZM135.991 150H131.991V154H135.991V150ZM135.991 140.318H139.991V136.318H135.991V140.318ZM135.445 140.318V136.318H133.004L131.888 138.49L135.445 140.318ZM130.945 146.091L133.573 149.107L133.586 149.095L133.6 149.083L130.945 146.091ZM124.173 149.955L125.477 153.736L125.496 153.729L125.515 153.722L124.173 149.955ZM128.127 136.273L129.956 139.83L129.975 139.82L129.994 139.81L128.127 136.273ZM133.264 131.636L129.896 129.479L133.264 131.636ZM135.127 117.636H139.127V110.266L132.947 114.283L135.127 117.636ZM132.627 118.727L133.756 122.565L133.791 122.554L133.827 122.543L132.627 118.727ZM129.127 119.591L129.859 123.523L129.903 123.515L129.947 123.506L129.127 119.591ZM125.218 120.273L125.771 124.234L125.816 124.228L125.861 124.221L125.218 120.273ZM121.673 120.773L121.107 116.813L121.1 116.814L121.092 116.815L121.673 120.773ZM115.718 122.364L117.294 126.04L115.718 122.364ZM111.764 125.318L114.925 127.768L114.94 127.75L114.954 127.731L111.764 125.318ZM113.218 135.909L110.859 139.14L110.888 139.161L110.917 139.181L113.218 135.909ZM115.036 147.318C111.047 147.318 107.644 146.627 104.749 145.343L101.506 152.657C105.58 154.463 110.116 155.318 115.036 155.318V147.318ZM104.775 145.355C101.946 144.076 99.7846 142.241 98.1878 139.834L91.5213 144.257C93.9851 147.971 97.3388 150.773 101.479 152.645L104.775 145.355ZM98.2128 139.872C96.7256 137.574 95.8545 134.528 95.8545 130.5H87.8545C87.8545 135.684 88.9835 140.335 91.4963 144.218L98.2128 139.872ZM95.8545 130.5C95.8545 127.095 96.4808 124.534 97.5102 122.628L90.4716 118.826C88.6525 122.193 87.8545 126.147 87.8545 130.5H95.8545ZM97.5102 122.628C98.6255 120.564 100.113 118.945 101.999 117.711L97.619 111.016C94.5957 112.995 92.2048 115.618 90.4716 118.826L97.5102 122.628ZM101.999 117.711C104.058 116.363 106.442 115.316 109.187 114.597L107.158 106.858C103.661 107.775 100.469 109.152 97.619 111.016L101.999 117.711ZM109.178 114.599C112.113 113.837 115.207 113.296 118.466 112.982L117.698 105.018C114.047 105.371 110.536 105.981 107.168 106.856L109.178 114.599ZM118.497 112.978C122.584 112.551 125.917 112.151 128.479 111.776L127.321 103.86C124.913 104.213 121.701 104.6 117.666 105.022L118.497 112.978ZM128.526 111.769C131.176 111.349 133.686 110.663 135.549 109.405L131.07 102.777C130.689 103.034 129.594 103.5 127.274 103.868L128.526 111.769ZM135.549 109.405C137.891 107.822 138.991 105.388 138.991 102.727H130.991C130.991 102.847 130.98 102.911 130.975 102.932C130.971 102.949 130.973 102.932 130.993 102.893C131.002 102.875 131.013 102.855 131.026 102.836C131.04 102.816 131.053 102.8 131.065 102.787C131.089 102.759 131.097 102.758 131.07 102.777L135.549 109.405ZM138.991 102.727V102.455H130.991V102.727H138.991ZM138.991 102.455C138.991 98.6657 137.751 95.2352 134.883 92.75L129.644 98.7955C130.413 99.4618 130.991 100.486 130.991 102.455H138.991ZM134.908 92.7719C132.15 90.3409 128.528 89.4091 124.627 89.4091V97.4091C127.332 97.4091 128.801 98.0531 129.619 98.7736L134.908 92.7719ZM124.627 89.4091C120.579 89.4091 116.87 90.3067 113.909 92.5273L118.709 98.9273C119.87 98.0569 121.706 97.4091 124.627 97.4091V89.4091ZM113.94 92.5047C111.22 94.5046 109.305 97.1344 108.376 100.342L116.06 102.567C116.465 101.169 117.277 99.9802 118.679 98.9499L113.94 92.5047ZM112.542 97.4677L94.6329 96.0131L93.9853 103.987L111.894 105.441L112.542 97.4677ZM98.2203 100.838C98.9979 97.2094 100.501 94.1637 102.701 91.6129L96.6441 86.3871C93.5114 90.0181 91.4385 94.3057 90.3979 99.1619L98.2203 100.838ZM102.714 91.5983C104.914 89.023 107.793 86.9895 111.463 85.5376L108.519 78.0988C103.764 79.9802 99.7646 82.7346 96.6315 86.4017L102.714 91.5983ZM111.476 85.5321C115.155 84.0607 119.542 83.2727 124.718 83.2727V75.2727C118.742 75.2727 113.312 76.1817 108.505 78.1043L111.476 85.5321ZM124.718 83.2727C128.282 83.2727 131.659 83.69 134.861 84.511L136.848 76.7617C132.959 75.7646 128.912 75.2727 124.718 75.2727V83.2727ZM134.869 84.513C138.029 85.3164 140.749 86.5405 143.078 88.1524L147.631 81.5749C144.445 79.3686 140.832 77.7745 136.84 76.7597L134.869 84.513ZM143.095 88.164C145.349 89.7079 147.113 91.6765 148.419 94.1152L155.472 90.3394C153.565 86.778 150.936 83.8375 147.615 81.5633L143.095 88.164ZM148.427 94.1301C149.652 96.3957 150.355 99.2713 150.355 102.909H158.355C158.355 98.2439 157.451 93.9982 155.464 90.3245L148.427 94.1301ZM150.355 102.909V150H158.355V102.909H150.355ZM154.355 146H135.991V154H154.355V146ZM139.991 150V140.318H131.991V150H139.991ZM135.991 136.318H135.445V144.318H135.991V136.318ZM131.888 138.49C130.998 140.221 129.808 141.753 128.291 143.099L133.6 149.083C135.84 147.096 137.65 144.779 139.003 142.146L131.888 138.49ZM128.318 143.075C126.861 144.344 125.053 145.395 122.83 146.187L125.515 153.722C128.565 152.636 131.273 151.11 133.573 149.107L128.318 143.075ZM122.869 146.173C120.738 146.908 118.149 147.318 115.036 147.318V155.318C118.833 155.318 122.334 154.82 125.477 153.736L122.869 146.173ZM120.582 141.955C123.964 141.955 127.123 141.286 129.956 139.83L126.299 132.715C124.768 133.502 122.897 133.955 120.582 133.955V141.955ZM129.994 139.81C132.742 138.36 134.99 136.357 136.632 133.794L129.896 129.479C129.052 130.795 127.876 131.883 126.26 132.735L129.994 139.81ZM136.632 133.794C138.314 131.168 139.127 128.212 139.127 125.045H131.127C131.127 126.788 130.698 128.226 129.896 129.479L136.632 133.794ZM139.127 125.045V117.636H131.127V125.045H139.127ZM132.947 114.283C132.763 114.403 132.307 114.635 131.428 114.911L133.827 122.543C135.069 122.153 136.28 121.658 137.307 120.99L132.947 114.283ZM131.499 114.89C130.591 115.157 129.53 115.42 128.308 115.676L129.947 123.506C131.33 123.216 132.603 122.904 133.756 122.565L131.499 114.89ZM128.396 115.658C127.122 115.895 125.849 116.117 124.575 116.325L125.861 124.221C127.194 124.004 128.526 123.771 129.859 123.523L128.396 115.658ZM124.665 116.311C123.359 116.493 122.173 116.661 121.107 116.813L122.238 124.733C123.294 124.582 124.471 124.416 125.771 124.234L124.665 116.311ZM121.092 116.815C118.557 117.187 116.224 117.795 114.143 118.687L117.294 126.04C118.606 125.478 120.243 125.025 122.253 124.73L121.092 116.815ZM114.143 118.687C111.925 119.637 110.003 121.014 108.573 122.906L114.954 127.731C115.403 127.138 116.117 126.545 117.294 126.04L114.143 118.687ZM108.602 122.868C107.023 124.905 106.355 127.329 106.355 129.864H114.355C114.355 128.762 114.625 128.155 114.925 127.768L108.602 122.868ZM106.355 129.864C106.355 133.607 107.789 136.898 110.859 139.14L115.577 132.679C114.829 132.133 114.355 131.393 114.355 129.864H106.355ZM110.917 139.181C113.684 141.126 116.998 141.955 120.582 141.955V133.955C118.226 133.955 116.631 133.419 115.519 132.637L110.917 139.181ZM212.914 80.1818H216.914V76.1818H212.914V80.1818ZM212.914 94.7273V98.7273H216.914V94.7273H212.914ZM170.868 94.7273H166.868V98.7273H170.868V94.7273ZM170.868 80.1818V76.1818H166.868V80.1818H170.868ZM180.414 63.4545V59.4545H176.414V63.4545H180.414ZM199.777 63.4545H203.777V59.4545H199.777V63.4545ZM200.595 132.727L197.084 134.643L197.096 134.666L197.109 134.688L200.595 132.727ZM202.868 134.773L201.363 138.479L201.382 138.487L201.402 138.494L202.868 134.773ZM209.05 135.136L209.708 139.082L209.771 139.071L209.834 139.059L209.05 135.136ZM211.141 134.727L215.054 133.9L214.246 130.075L210.404 130.796L211.141 134.727ZM214.186 149.136L215.379 152.954L218.852 151.869L218.1 148.309L214.186 149.136ZM210.095 150.182L209.221 146.279L209.189 146.286L209.157 146.293L210.095 150.182ZM203.686 150.955L203.542 146.957L203.531 146.958L203.686 150.955ZM191.414 149.091L189.9 152.794L189.912 152.798L191.414 149.091ZM183.277 142.455L186.636 140.283L183.277 142.455ZM180.414 131.091L184.414 131.117L184.414 131.104V131.091H180.414ZM208.914 80.1818V94.7273H216.914V80.1818H208.914ZM212.914 90.7273H170.868V98.7273H212.914V90.7273ZM174.868 94.7273V80.1818H166.868V94.7273H174.868ZM170.868 84.1818H212.914V76.1818H170.868V84.1818ZM180.414 67.4545H199.777V59.4545H180.414V67.4545ZM195.777 63.4545V128.545H203.777V63.4545H195.777ZM195.777 128.545C195.777 130.658 196.086 132.813 197.084 134.643L204.107 130.812C204.014 130.642 203.777 130.009 203.777 128.545H195.777ZM197.109 134.688C198.068 136.394 199.499 137.722 201.363 138.479L204.374 131.067C204.298 131.036 204.213 131 204.082 130.766L197.109 134.688ZM201.402 138.494C202.957 139.107 204.622 139.364 206.323 139.364V131.364C205.418 131.364 204.78 131.227 204.334 131.051L201.402 138.494ZM206.323 139.364C207.455 139.364 208.584 139.269 209.708 139.082L208.392 131.191C207.698 131.307 207.008 131.364 206.323 131.364V139.364ZM209.834 139.059C210.739 138.878 211.417 138.745 211.878 138.659L210.404 130.796C209.895 130.891 209.179 131.031 208.266 131.214L209.834 139.059ZM207.227 135.554L210.273 149.964L218.1 148.309L215.054 133.9L207.227 135.554ZM212.993 145.318C212.179 145.573 210.939 145.893 209.221 146.279L210.97 154.085C212.767 153.682 214.255 153.306 215.379 152.954L212.993 145.318ZM209.157 146.293C207.739 146.636 205.885 146.872 203.542 146.957L203.831 154.952C206.518 154.855 208.937 154.576 211.034 154.07L209.157 146.293ZM203.531 146.958C199.303 147.122 195.798 146.552 192.916 145.384L189.912 152.798C194.059 154.479 198.736 155.15 203.842 154.952L203.531 146.958ZM192.927 145.388C190.156 144.256 188.107 142.558 186.636 140.283L179.918 144.626C182.326 148.351 185.701 151.077 189.9 152.794L192.927 145.388ZM186.636 140.283C185.225 138.099 184.387 135.131 184.414 131.117L176.414 131.064C176.38 136.202 177.451 140.81 179.918 144.626L186.636 140.283ZM184.414 131.091V63.4545H176.414V131.091H184.414ZM252.791 56.9091H256.791V52.9091H252.791V56.9091ZM252.791 150V154H256.791V150H252.791ZM233.427 150H229.427V154H233.427V150ZM233.427 56.9091V52.9091H229.427V56.9091H233.427ZM248.791 56.9091V150H256.791V56.9091H248.791ZM252.791 146H233.427V154H252.791V146ZM237.427 150V56.9091H229.427V150H237.427ZM233.427 60.9091H252.791V52.9091H233.427V60.9091ZM274.702 150H270.702V154H274.702V150ZM274.702 80.1818V76.1818H270.702V80.1818H274.702ZM294.066 80.1818H298.066V76.1818H294.066V80.1818ZM294.066 150V154H298.066V150H294.066ZM277.02 68.3182L274.258 71.2106L274.28 71.2317L274.302 71.2524L277.02 68.3182ZM277.02 54.5L279.761 57.4141L279.762 57.4128L277.02 54.5ZM291.793 54.5L289.03 57.3924L289.052 57.4135L289.075 57.4342L291.793 54.5ZM291.793 68.3182L294.533 71.2323L294.535 71.231L291.793 68.3182ZM278.702 150V80.1818H270.702V150H278.702ZM274.702 84.1818H294.066V76.1818H274.702V84.1818ZM290.066 80.1818V150H298.066V80.1818H290.066ZM294.066 146H274.702V154H294.066V146ZM284.43 67.1818C282.531 67.1818 281.04 66.5893 279.739 65.3839L274.302 71.2524C277.122 73.8652 280.57 75.1818 284.43 75.1818V67.1818ZM279.783 65.4257C278.507 64.2062 277.975 62.9185 277.975 61.3636H269.975C269.975 65.2027 271.474 68.5513 274.258 71.2106L279.783 65.4257ZM277.975 61.3636C277.975 59.8553 278.493 58.6055 279.761 57.4141L274.28 51.5859C271.487 54.2126 269.975 57.5386 269.975 61.3636H277.975ZM279.762 57.4128C281.066 56.1851 282.55 55.5909 284.43 55.5909V47.5909C280.551 47.5909 277.096 48.9361 274.279 51.5872L279.762 57.4128ZM284.43 55.5909C286.308 55.5909 287.765 56.1837 289.03 57.3924L294.556 51.6076C291.761 48.9375 288.309 47.5909 284.43 47.5909V55.5909ZM289.075 57.4342C290.367 58.6318 290.884 59.876 290.884 61.3636H298.884C298.884 57.5179 297.34 54.1863 294.512 51.5658L289.075 57.4342ZM290.884 61.3636C290.884 62.8981 290.354 64.1801 289.052 65.4054L294.535 71.231C297.354 68.5775 298.884 65.2231 298.884 61.3636H290.884ZM289.053 65.4041C287.791 66.5906 286.327 67.1818 284.43 67.1818V75.1818C288.289 75.1818 291.734 73.864 294.533 71.2323L289.053 65.4041Z" fill="url(#paint0_linear_11_5)" mask="url(#path-1-outside-1_11_5)"/>
<ellipse cx="284.5" cy="61.5" rx="22.5" ry="14.5" fill="#191919"/>
<path d="M273.198 68.888C261.745 64.6591 261.768 55.1683 273.247 48.8088C274.606 48.0559 275.718 47.4119 275.718 47.3777C275.718 47.3434 274.094 47.812 272.108 48.4188C260.461 51.9795 252.001 47.6396 252 38.1041C251.999 26.1208 263.937 22.7478 276.152 31.2801C279.621 33.7034 279.83 33.7777 277.284 31.6817C266.931 23.1603 267.161 12.6505 277.763 9.76009C289.799 6.47865 298.486 14.9515 294.866 26.4415C294.513 27.5615 294.124 28.8111 294.001 29.2183C293.878 29.6256 294.597 28.5216 295.599 26.7651C301.842 15.8175 311.796 15.2816 317.449 25.5886C321.875 33.6572 316.38 41.9916 306.635 41.9916C304.737 41.9916 304.145 42.5593 305.743 42.8463C317.1 44.885 320.077 54.0451 311.8 61.4843C303.932 68.5562 295.257 66.2456 292.2 56.2638L291.525 54.0603L291.278 57.3745C290.534 67.3807 282.673 72.3864 273.198 68.888ZM291.253 52.636C291.138 52.3815 291.045 52.5896 291.045 53.0988C291.045 53.6079 291.138 53.8162 291.253 53.5616C291.367 53.3071 291.367 52.8906 291.253 52.636ZM277.368 46.8047C277.708 46.6073 277.801 46.4458 277.574 46.4458C277.347 46.4458 276.883 46.6073 276.543 46.8047C276.202 47.0021 276.11 47.1636 276.336 47.1636C276.563 47.1636 277.027 47.0021 277.368 46.8047ZM303.256 42.1075C302.862 42.0148 302.119 42.0115 301.606 42.1005C301.093 42.1891 301.416 42.2649 302.323 42.269C303.231 42.2732 303.65 42.2002 303.256 42.1075Z" fill="url(#paint1_linear_11_5)"/>
<path d="M265.391 27.2698C263.219 26.4749 262.51 24.3366 264.314 24.0223C264.583 23.975 266.484 23.7565 268.538 23.5357C272.808 23.0769 272.419 23.2017 272.283 22.3319C272.179 21.6659 272.115 21.6629 267.846 22.1194C262.599 22.6803 260.932 22.04 262.759 20.1655L263.433 19.4736L267.74 20.0392C271.907 20.5863 272.053 20.5847 272.226 19.9909C272.465 19.1673 272.498 19.1777 267.657 18.5383C263.123 17.9393 261.85 17.3165 262.708 16.1165C263.595 14.8764 264.377 14.9288 268.414 16.499C272.685 18.1602 272.67 18.1576 272.988 17.3108C273.189 16.7757 272.777 16.5517 268.905 15.092C263.9 13.2046 262.998 12.1619 265.502 11.1565C266.389 10.8006 266.575 10.8777 269.293 12.7268C274.048 15.9624 273.872 15.8762 274.349 15.2054C274.737 14.6608 274.559 14.4896 271.118 12.1008C267.6 9.65833 267.479 9.54081 267.574 8.63392C267.787 6.57447 269.964 7.01474 272.022 9.53348C273.748 11.6462 273.78 11.6661 274.513 11.0896C275.103 10.6253 275.101 10.6217 272.528 7.61068C270.223 4.91458 269.974 4.51829 270.167 3.85473C270.784 1.73654 273.137 2.29546 274.447 4.87126C276.968 9.82728 276.953 9.80529 277.761 9.63675C278.663 9.4484 278.732 9.70456 276.685 5.60706L275.017 2.26667L275.889 1.13333L276.762 -7.62939e-06L278.082 0.527796C279.613 1.13971 279.606 1.12354 280.023 5.40411C280.197 7.19467 280.433 8.73886 280.548 8.83565C280.735 8.99339 281.982 8.86116 281.982 8.68361C281.983 8.64376 281.833 6.96376 281.652 4.95001L281.322 1.28863L282.47 0.648576C284.93 -0.72226 285.528 0.525904 284.716 5.34246L284.127 8.83753L284.942 8.97236C285.872 9.12636 285.874 9.12227 286.277 6.2696C286.654 3.60739 288.401 2.36441 289.628 3.8859C290.333 4.76054 290.322 4.80038 288.32 8.74113C286.891 11.5523 286.677 12.2032 287.091 12.4677C287.971 13.0289 288.266 12.6959 289.97 9.2177C291.797 5.48947 291.924 5.34666 293.316 5.44813C295.494 5.60691 295.137 6.96568 292.056 10.2396C289.262 13.2083 289.054 13.5947 290.024 14.0023C290.475 14.1914 291.075 13.7007 293.29 11.3327C296.234 8.1866 296.146 8.24706 297.456 8.46399C298.354 8.61265 298.943 9.58665 298.607 10.3663C298.526 10.5536 296.925 11.6461 295.049 12.7941C291.154 15.1775 291.187 15.1465 291.779 15.8755C292.217 16.4157 292.246 16.4036 295.75 14.2027C299.189 12.0418 299.303 11.993 300.229 12.2768C302.426 12.9497 301.781 14.606 299.001 15.4343C297.899 15.7626 296.061 16.3099 294.917 16.6506C292.873 17.2595 292.841 17.2837 293.067 18.0604C293.283 18.8 293.361 18.8277 294.282 18.4927C301.353 15.9202 304.737 16.0543 302.584 18.8217C301.098 20.7315 301.146 20.7144 294.429 21.7635C286.715 22.9687 286.797 22.9759 286.233 21.0413C285.701 19.2186 284.939 18.3436 283.644 18.0713C280.889 17.4921 279.073 19.4597 279.862 22.1673C280.47 24.2538 280.45 24.2694 275.487 25.5427C273.344 26.0923 270.546 26.8338 269.268 27.1904C267.031 27.8151 266.888 27.818 265.391 27.2698ZM278.22 22.2788C277.841 20.9792 277.974 19.7787 278.605 18.8045C279.083 18.0646 278.312 16.5095 276.878 15.3242C275.452 14.1459 273.259 20.1973 274.085 23.0308L274.428 24.2076L276.48 23.7793L278.533 23.3511L278.22 22.2788ZM291.715 19.1657C291.137 17.1827 289.448 15.2365 287.355 14.1421C285.108 12.9672 285.113 12.9653 284.839 15.0718L284.61 16.8282L285.452 17.268C286.58 17.8579 287.229 18.7123 287.652 20.166L288.005 21.3745L290.057 20.9463L292.109 20.518L291.715 19.1657ZM283.127 15.7109C283.191 15.3181 283.413 14.1808 283.62 13.1836C284.256 10.1268 284.258 10.1304 282.107 10.1878C280.284 10.2364 277.44 10.8821 277.137 11.3162C276.869 11.7002 276.1 11.7332 276.24 11.3547C276.327 11.1202 276.256 11.0966 276.039 11.2875C274.788 12.3864 275.653 14.8927 277.088 14.3292C277.812 14.0452 277.906 14.1203 279.898 16.562C280.529 17.3347 282.968 16.6918 283.127 15.7109ZM276.385 14.0672C275.994 13.8632 275.643 12.4507 275.921 12.206C276.135 12.0181 277.248 13.1975 277.423 13.7974C277.503 14.072 276.762 14.2645 276.385 14.0672Z" fill="url(#paint2_linear_11_5)"/>
<path d="M274.293 67.5831C263.504 63.555 263.526 54.5148 274.339 48.4571C275.619 47.74 276.666 47.1266 276.666 47.094C276.666 47.0613 275.136 47.5076 273.266 48.0857C262.295 51.4774 254.325 47.3435 254.324 38.2606C254.323 26.8463 265.569 23.6333 277.075 31.7606C280.343 34.0688 280.54 34.1396 278.141 32.1431C268.389 24.0262 268.606 14.0154 278.592 11.2622C289.93 8.13654 298.113 16.2072 294.703 27.1517C294.371 28.2185 294.004 29.4088 293.889 29.7967C293.773 30.1846 294.45 29.1331 295.394 27.4599C301.275 17.032 310.651 16.5216 315.977 26.3393C320.146 34.0248 314.97 41.9636 305.79 41.9636C304.002 41.9636 303.444 42.5043 304.95 42.7777C315.648 44.7197 318.452 53.4449 310.655 60.5309C303.243 67.2671 295.072 65.0662 292.192 55.5582L291.556 53.4593L291.324 56.6162C290.623 66.1474 283.218 70.9155 274.293 67.5831ZM291.3 52.1027C291.192 51.8602 291.104 52.0586 291.104 52.5435C291.104 53.0284 291.192 53.2268 291.3 52.9843C291.408 52.7419 291.408 52.3451 291.3 52.1027ZM278.22 46.5482C278.541 46.3602 278.628 46.2064 278.415 46.2064C278.201 46.2064 277.764 46.3602 277.443 46.5482C277.123 46.7363 277.035 46.8901 277.249 46.8901C277.463 46.8901 277.9 46.7363 278.22 46.5482ZM302.607 42.0739C302.235 41.9857 301.536 41.9825 301.053 42.0673C300.569 42.1517 300.873 42.2239 301.728 42.2278C302.583 42.2318 302.978 42.1623 302.607 42.0739Z" fill="#191919"/>
<path d="M287.734 46.0549C292.034 46.0549 295.52 43.2571 295.52 39.8059C295.52 36.3547 292.034 33.5569 287.734 33.5569C283.435 33.5569 279.949 36.3547 279.949 39.8059C279.949 43.2571 283.435 46.0549 287.734 46.0549Z" fill="url(#paint3_linear_11_5)"/>
<path d="M287.755 45.6709C291.699 45.6709 294.896 43.0823 294.896 39.8892C294.896 36.696 291.699 34.1074 287.755 34.1074C283.812 34.1074 280.615 36.696 280.615 39.8892C280.615 43.0823 283.812 45.6709 287.755 45.6709Z" fill="#191919"/>
<defs>
<linearGradient id="paint0_linear_11_5" x1="4.91693e-08" y1="103" x2="302" y2="103" gradientUnits="userSpaceOnUse">
<stop stop-color="#7DFFB9"/>
<stop offset="0.5" stop-color="#7CE8C3"/>
<stop offset="1" stop-color="#EAADFA"/>
</linearGradient>
<linearGradient id="paint1_linear_11_5" x1="252" y1="39.5236" x2="319" y2="39.5236" gradientUnits="userSpaceOnUse">
<stop offset="0.00218761" stop-color="#7DFFB9"/>
<stop offset="0.48365" stop-color="#6AFFB6"/>
<stop offset="0.531816" stop-color="#8ADFCA"/>
<stop offset="0.596485" stop-color="#B1C6DC"/>
<stop offset="1" stop-color="#EBADFA"/>
</linearGradient>
<linearGradient id="paint2_linear_11_5" x1="260.521" y1="16.2398" x2="299.58" y2="4.855" gradientUnits="userSpaceOnUse">
<stop stop-color="#84FFBA"/>
<stop offset="0.502662" stop-color="#56FFB2"/>
<stop offset="1" stop-color="#FF95FF"/>
</linearGradient>
<linearGradient id="paint3_linear_11_5" x1="279.588" y1="39.8059" x2="295.881" y2="39.8059" gradientUnits="userSpaceOnUse">
<stop stop-color="#7DFFB9"/>
<stop offset="0.492995" stop-color="#7CE8C3"/>
<stop offset="1" stop-color="#E9AEF9"/>
</linearGradient>
</defs>
</svg>
