<?xml version="1.0" encoding="UTF-8" standalone="no"?>
<svg
   width="319"
   height="181"
   viewBox="0 0 319 181"
   fill="none"
   version="1.1"
   id="svg22"
   sodipodi:docname="icon.svg"
   inkscape:export-filename="icon.svg"
   inkscape:export-xdpi="96"
   inkscape:export-ydpi="96"
   inkscape:version="1.3.2 (1:1.3.2+202311252150+091e20ef0f)"
   xmlns:inkscape="http://www.inkscape.org/namespaces/inkscape"
   xmlns:sodipodi="http://sodipodi.sourceforge.net/DTD/sodipodi-0.dtd"
   xmlns="http://www.w3.org/2000/svg"
   xmlns:svg="http://www.w3.org/2000/svg">
  <sodipodi:namedview
     id="namedview22"
     pagecolor="#505050"
     bordercolor="#eeeeee"
     borderopacity="1"
     inkscape:showpageshadow="0"
     inkscape:pageopacity="0"
     inkscape:pagecheckerboard="0"
     inkscape:deskcolor="#505050"
     inkscape:zoom="4.1147475"
     inkscape:cx="277.05223"
     inkscape:cy="79.59176"
     inkscape:window-width="1366"
     inkscape:window-height="692"
     inkscape:window-x="0"
     inkscape:window-y="0"
     inkscape:window-maximized="1"
     inkscape:current-layer="svg22" />
  <path
     d="M 8.09,150 V 56.91 h 36.728 c 7.06,0 13.0753,1.3484 18.046,4.045 4.97,2.666 8.7577,6.378 11.363,11.136 2.6367,4.7267 3.955,10.1814 3.955,16.364 0,6.1814 -1.3333,11.636 -4,16.363 -2.6667,4.727 -6.5307,8.409 -11.592,11.046 -5.03,2.636 -11.121,3.954 -18.273,3.954 H 20.91 v -15.773 h 20.227 c 3.788,0 6.9093,-0.651 9.364,-1.954 2.4847,-1.333 4.333,-3.1666 5.545,-5.5 1.2427,-2.364 1.864,-5.076 1.864,-8.136 0,-3.0906 -0.6213,-5.7876 -1.864,-8.091 -1.212,-2.3333 -3.0603,-4.1366 -5.545,-5.41 C 48.0163,73.652 44.8647,73.0007 41.046,73 H 27.774 v 77 z m 106.946,1.318 c -4.454,0 -8.424,-0.773 -11.909,-2.318 -3.4847,-1.576 -6.242,-3.894 -8.272,-6.955 -2,-3.091 -3,-6.939 -3,-11.545 0,-3.879 0.712,-7.136 2.136,-9.773 1.424,-2.637 3.3633,-4.758 5.818,-6.363 2.455,-1.607 5.243,-2.819 8.364,-3.637 3.253,-0.835 6.566,-1.412 9.909,-1.727 4.06,-0.424 7.333,-0.818 9.818,-1.182 2.485,-0.394 4.288,-0.97 5.409,-1.727 1.121,-0.758 1.682,-1.879 1.682,-3.364 v -0.272 c 0,-2.8793 -0.909,-5.1066 -2.727,-6.682 -1.788,-1.576 -4.334,-2.364 -7.637,-2.364 -3.485,0 -6.257,0.7727 -8.318,2.318 -2.061,1.5147 -3.424,3.424 -4.091,5.728 L 94.309,100 c 0.9093,-4.2426 2.6973,-7.9093 5.364,-11 2.667,-3.1206 6.106,-5.5146 10.318,-7.182 4.242,-1.6966 9.151,-2.545 14.727,-2.545 3.879,0 7.591,0.4544 11.137,1.363 3.575,0.91 6.742,2.3194 9.5,4.228 2.763,1.8818 5.025,4.4092 6.59,7.363 1.607,2.97 2.41,6.5307 2.41,10.682 V 150 h -18.364 v -9.682 h -0.546 c -1.126,2.189 -2.653,4.147 -4.5,5.773 -1.878,1.636 -4.135,2.924 -6.772,3.864 -2.637,0.909 -5.682,1.363 -9.137,1.363 z m 5.546,-13.363 c 2.848,0 5.363,-0.561 7.545,-1.682 2.182,-1.151 3.894,-2.697 5.137,-4.637 1.242,-1.939 1.863,-4.136 1.863,-6.591 v -7.409 c -0.606,0.394 -1.439,0.758 -2.5,1.091 -1.03,0.303 -2.197,0.591 -3.5,0.864 -1.303,0.243 -2.606,0.47 -3.909,0.682 -1.303,0.182 -2.485,0.349 -3.545,0.5 -2.273,0.333 -4.258,0.864 -5.955,1.591 -1.697,0.727 -3.015,1.712 -3.954,2.954 -0.94,1.212 -1.41,2.727 -1.409,4.546 0,2.636 0.954,4.651 2.863,6.045 1.94,1.364 4.395,2.046 7.364,2.046 z M 212.914,80.182 V 94.727 H 170.868 V 80.182 Z m -32.5,-16.727 h 19.363 v 65.09 c 0,1.788 0.273,3.182 0.818,4.182 0.546,0.97 1.304,1.652 2.273,2.046 1,0.394 2.152,0.591 3.455,0.591 0.909,0 1.818,-0.076 2.727,-0.228 0.909,-0.181 1.606,-0.318 2.091,-0.409 l 3.045,14.409 c -0.969,0.303 -2.333,0.652 -4.091,1.046 -1.757,0.424 -3.893,0.682 -6.409,0.773 -4.667,0.181 -8.757,-0.44 -12.272,-1.864 -3.485,-1.424 -6.197,-3.636 -8.137,-6.636 -1.939,-3 -2.894,-6.788 -2.863,-11.364 z m 72.377,-6.546 V 150 H 233.427 V 56.91 Z M 274.702,150 V 80.182 h 19.364 V 150 Z"
     fill="#191919"
     id="path1"
     sodipodi:nodetypes="ccsccsscsccsccsccccccsccsscccccsscscccccscccsccccccssccscccccscccscccccccsccsccccccccccccccccccc" />
  <mask
     id="mask0_26_2"
     style="mask-type:luminance"
     maskUnits="userSpaceOnUse"
     x="4"
     y="47"
     width="295"
     height="109">
    <path
       d="M4 47H299V156H4V47Z"
       fill="white"
       id="path2" />
    <path
       d="M8.09 150V56.91H44.818C51.878 56.91 57.8933 58.2583 62.864 60.955C67.834 63.621 71.6217 67.333 74.227 72.091C76.8637 76.8177 78.182 82.2723 78.182 88.455C78.182 94.6363 76.8487 100.091 74.182 104.818C71.5153 109.545 67.6513 113.227 62.59 115.864C57.56 118.5 51.469 119.818 44.317 119.818H20.91V104.045H41.137C44.925 104.045 48.0463 103.394 50.501 102.091C52.9857 100.758 54.834 98.9243 56.046 96.591C57.2887 94.227 57.91 91.515 57.91 88.455C57.91 85.3643 57.2887 82.6673 56.046 80.364C54.834 78.0307 52.9857 76.2273 50.501 74.954C48.0163 73.652 44.8647 73.0007 41.046 73H27.774V150H8.09ZM115.036 151.318C110.582 151.318 106.612 150.545 103.127 149C99.6423 147.424 96.885 145.106 94.855 142.045C92.855 138.954 91.855 135.106 91.855 130.5C91.855 126.621 92.567 123.364 93.991 120.727C95.415 118.09 97.3543 115.969 99.809 114.364C102.264 112.757 105.052 111.545 108.173 110.727C111.426 109.892 114.739 109.315 118.082 109C122.142 108.576 125.415 108.182 127.9 107.818C130.385 107.424 132.188 106.848 133.309 106.091C134.43 105.333 134.991 104.212 134.991 102.727V102.455C134.991 99.5757 134.082 97.3483 132.264 95.773C130.476 94.197 127.93 93.409 124.627 93.409C121.142 93.409 118.37 94.1817 116.309 95.727C114.248 97.2417 112.885 99.151 112.218 101.455L94.309 100C95.2183 95.7573 97.0063 92.0907 99.673 89C102.34 85.8793 105.779 83.4853 109.991 81.818C114.233 80.1213 119.142 79.273 124.718 79.273C128.597 79.273 132.309 79.7273 135.855 80.636C139.43 81.546 142.597 82.9553 145.355 84.864C148.118 86.7458 150.38 89.2732 151.945 92.227C153.552 95.197 154.355 98.7577 154.355 102.909V150H135.991V140.318H135.445C134.319 142.507 132.792 144.465 130.945 146.091C129.067 147.727 126.81 149.015 124.173 149.955C121.536 150.864 118.491 151.318 115.036 151.318ZM120.582 137.955C123.43 137.955 125.945 137.394 128.127 136.273C130.309 135.122 132.021 133.576 133.264 131.636C134.506 129.697 135.127 127.5 135.127 125.045V117.636C134.521 118.03 133.688 118.394 132.627 118.727C131.597 119.03 130.43 119.318 129.127 119.591C127.824 119.834 126.521 120.061 125.218 120.273C123.915 120.455 122.733 120.622 121.673 120.773C119.4 121.106 117.415 121.637 115.718 122.364C114.021 123.091 112.703 124.076 111.764 125.318C110.824 126.53 110.354 128.045 110.355 129.864C110.355 132.5 111.309 134.515 113.218 135.909C115.158 137.273 117.613 137.955 120.582 137.955ZM212.914 80.182V94.727H170.868V80.182H212.914ZM180.414 63.455H199.777V128.545C199.777 130.333 200.05 131.727 200.595 132.727C201.141 133.697 201.899 134.379 202.868 134.773C203.868 135.167 205.02 135.364 206.323 135.364C207.232 135.364 208.141 135.288 209.05 135.136C209.959 134.955 210.656 134.818 211.141 134.727L214.186 149.136C213.217 149.439 211.853 149.788 210.095 150.182C208.338 150.606 206.202 150.864 203.686 150.955C199.019 151.136 194.929 150.515 191.414 149.091C187.929 147.667 185.217 145.455 183.277 142.455C181.338 139.455 180.383 135.667 180.414 131.091V63.455ZM252.791 56.909V150H233.427V56.91L252.791 56.909ZM274.702 150V80.182H294.066V150H274.702Z"
       fill="black"
       id="path3" />
  </mask>
  <g
     mask="url(#mask0_26_2)"
     id="g4">
    <path
       d="M8.09 150H4.09V154H8.09V150ZM8.09 56.91V52.91H4.09V56.91H8.09ZM62.864 60.955L60.956 64.47L60.964 64.475L60.972 64.479L62.864 60.955ZM74.227 72.09L70.719 74.012L70.726 74.025L70.734 74.038L74.227 72.09ZM62.591 115.863L60.743 112.315L60.734 112.32L62.591 115.863ZM20.909 119.817H16.909V123.817H20.909V119.817ZM20.909 104.044V100.044H16.909V104.044H20.909ZM50.5 102.09L52.376 105.623L52.383 105.619L52.391 105.615L50.5 102.09ZM56.045 96.59L52.505 94.729L52.5 94.737L52.496 94.746L56.045 96.59ZM56.045 80.363L52.495 82.207L52.51 82.234L52.525 82.262L56.045 80.363ZM50.5 74.953L48.642 78.496L48.659 78.505L48.676 78.514L50.5 74.953ZM27.773 73V69H23.773V73H27.773ZM27.773 150V154H31.773V150H27.773ZM12.091 150V56.91H4.09V150H12.091ZM8.091 60.91H44.818V52.91H8.09L8.091 60.91ZM44.818 60.91C51.375 60.91 56.7 62.16 60.956 64.47L64.772 57.439C59.088 54.355 52.382 52.91 44.818 52.91V60.91ZM60.972 64.48C65.288 66.795 68.501 69.962 70.719 74.012L77.735 70.169C74.742 64.704 70.379 60.448 64.755 57.429L60.972 64.48ZM70.734 74.04C72.994 78.09 74.182 82.856 74.182 88.454H82.182C82.182 81.689 80.734 75.546 77.721 70.143L70.734 74.04ZM74.182 88.454C74.182 94.044 72.982 98.804 70.698 102.853L77.666 106.783C80.716 101.377 82.182 95.228 82.182 88.454H74.182ZM70.698 102.853C68.432 106.87 65.154 110.018 60.743 112.316L64.439 119.411C70.149 116.436 74.599 112.221 77.666 106.783L70.698 102.853ZM60.734 112.32C56.406 114.588 50.987 115.818 44.318 115.818V123.818C51.953 123.818 58.715 122.411 64.448 119.407L60.734 112.32ZM44.318 115.818H20.91V123.818H44.32L44.318 115.818ZM24.909 119.818V104.045L16.909 104.044V119.818H24.909ZM20.909 108.045H41.136V100.045H20.91L20.909 108.045ZM41.136 108.045C45.352 108.045 49.172 107.324 52.376 105.623L48.624 98.558C46.919 99.463 44.496 100.045 41.136 100.045V108.045ZM52.391 105.615C55.531 103.93 57.985 101.535 59.595 98.435L52.495 94.747C51.682 96.313 50.438 97.585 48.609 98.567L52.391 105.615ZM59.586 98.452C61.172 95.436 61.909 92.068 61.909 88.454H53.909C53.909 90.962 53.404 93.019 52.505 94.73L59.586 98.452ZM61.909 88.454C61.909 84.821 61.176 81.448 59.566 78.464L52.526 82.263C53.4 83.885 53.909 85.906 53.909 88.454H61.909ZM59.595 78.52C57.975 75.402 55.5 73.021 52.324 71.394L48.676 78.514C50.47 79.434 51.691 80.659 52.496 82.208L59.595 78.52ZM52.358 71.412C49.13 69.72 45.288 69 41.046 69V77C44.439 77 46.9 77.582 48.642 78.496L52.358 71.412ZM41.046 69H27.772V77H41.044L41.046 69ZM23.773 73V150H31.773V73H23.773ZM27.773 146H8.09V154H27.772L27.773 146ZM103.127 149L101.479 152.645L101.492 152.651L101.506 152.657L103.127 149ZM94.855 142.045L91.496 144.218L91.509 144.238L91.521 144.257L94.855 142.045ZM108.173 110.727L107.168 106.856L107.158 106.858L108.173 110.727ZM118.082 109L118.466 112.982L118.482 112.98L118.497 112.978L118.082 109ZM127.9 107.818L128.479 111.776L128.503 111.773L128.526 111.769L127.9 107.818ZM132.264 95.773L129.619 98.773L129.631 98.785L129.644 98.795L132.264 95.773ZM116.309 95.727L118.679 98.95L118.694 98.939L118.709 98.927L116.309 95.727ZM112.218 101.455L111.894 105.441L115.152 105.706L116.06 102.567L112.218 101.455ZM94.309 100L90.398 99.162L89.443 103.618L93.985 103.987L94.309 100ZM99.673 89L102.701 91.613L102.708 91.606L102.714 91.598L99.673 89ZM109.991 81.818L111.463 85.538L111.47 85.535L111.476 85.532L109.991 81.818ZM135.855 80.636L134.861 84.511L134.869 84.513L135.855 80.636ZM145.355 84.864L143.078 88.152L143.086 88.158L143.095 88.164L145.355 84.864ZM151.945 92.227L148.419 94.115L148.423 94.123L148.427 94.13L151.945 92.227ZM154.355 150V154H158.355V150H154.355ZM135.991 150H131.991V154H135.991V150ZM135.991 140.318H139.991V136.318H135.991V140.318ZM135.445 140.318V136.318H133.004L131.888 138.49L135.445 140.318ZM130.945 146.091L133.573 149.107L133.586 149.095L133.6 149.083L130.945 146.091ZM124.173 149.955L125.477 153.736L125.496 153.729L125.515 153.722L124.173 149.955ZM128.127 136.273L129.956 139.83L129.975 139.82L129.994 139.81L128.127 136.273ZM135.127 117.636H139.127V110.266L132.947 114.283L135.127 117.636ZM132.627 118.727L133.756 122.565L133.791 122.554L133.827 122.543L132.627 118.727ZM129.127 119.591L129.859 123.523L129.903 123.515L129.947 123.506L129.127 119.591ZM125.218 120.273L125.771 124.234L125.816 124.228L125.861 124.221L125.218 120.273ZM121.673 120.773L121.107 116.813L121.1 116.814L121.092 116.815L121.673 120.773ZM111.764 125.318L114.925 127.768L114.94 127.75L114.954 127.731L111.764 125.318ZM113.218 135.909L110.859 139.14L110.888 139.161L110.917 139.181L113.218 135.909ZM115.036 147.318C111.047 147.318 107.644 146.627 104.749 145.343L101.506 152.657C105.58 154.463 110.116 155.318 115.036 155.318V147.318ZM104.775 145.355C101.946 144.076 99.785 142.241 98.188 139.834L91.521 144.257C93.985 147.971 97.339 150.773 101.479 152.645L104.775 145.355ZM98.213 139.872C96.726 137.574 95.855 134.528 95.855 130.5H87.855C87.855 135.684 88.984 140.335 91.496 144.218L98.213 139.872ZM95.855 130.5C95.855 127.095 96.481 124.534 97.51 122.628L90.472 118.826C88.652 122.193 87.855 126.147 87.855 130.5H95.855ZM97.51 122.628C98.625 120.564 100.113 118.945 101.999 117.711L97.619 111.016C94.596 112.995 92.205 115.618 90.472 118.826L97.51 122.628ZM101.999 117.711C104.058 116.363 106.442 115.316 109.187 114.597L107.158 106.858C103.661 107.775 100.469 109.152 97.619 111.016L101.999 117.711ZM109.178 114.599C112.227 113.817 115.332 113.277 118.466 112.982L117.698 105.018C114.047 105.371 110.536 105.981 107.168 106.856L109.178 114.599ZM118.497 112.978C122.584 112.551 125.917 112.151 128.479 111.776L127.321 103.86C124.913 104.213 121.701 104.6 117.666 105.022L118.497 112.978ZM128.526 111.769C131.176 111.349 133.686 110.663 135.549 109.405L131.07 102.777C130.689 103.034 129.594 103.5 127.274 103.868L128.526 111.769ZM135.549 109.405C137.891 107.822 138.991 105.388 138.991 102.727H130.991C130.991 102.847 130.98 102.911 130.975 102.932C130.971 102.949 130.973 102.932 130.993 102.893C131.012 102.855 131.037 102.819 131.065 102.787C131.089 102.759 131.097 102.758 131.07 102.777L135.549 109.405ZM138.991 102.727V102.455H130.991V102.727H138.991ZM138.991 102.455C138.991 98.665 137.751 95.235 134.883 92.75L129.644 98.795C130.413 99.461 130.991 100.486 130.991 102.455H138.991ZM134.908 92.772C132.15 90.341 128.528 89.409 124.627 89.409V97.409C127.332 97.409 128.801 98.052 129.619 98.773L134.908 92.772ZM124.627 89.409C120.579 89.409 116.87 90.307 113.909 92.527L118.709 98.927C119.87 98.057 121.706 97.409 124.627 97.409V89.409ZM113.94 92.505C111.22 94.505 109.305 97.135 108.376 100.342L116.06 102.567C116.465 101.169 117.277 99.98 118.679 98.95L113.94 92.505ZM112.542 97.468L94.632 96.013L93.985 103.987L111.894 105.441L112.542 97.468ZM98.22 100.838C98.998 97.209 100.501 94.164 102.701 91.613L96.644 86.387C93.511 90.018 91.438 94.306 90.398 99.162L98.22 100.838ZM102.714 91.598C104.914 89.023 107.793 86.99 111.463 85.538L108.519 78.098C103.764 79.98 99.765 82.735 96.631 86.402L102.714 91.598ZM111.476 85.532C115.155 84.061 119.542 83.272 124.718 83.272V75.272C118.742 75.272 113.312 76.182 108.505 78.104L111.476 85.532ZM124.718 83.272C128.282 83.272 131.659 83.69 134.861 84.511L136.848 76.761C132.959 75.765 128.912 75.272 124.718 75.272V83.272ZM134.869 84.513C138.029 85.316 140.749 86.539 143.078 88.152L147.631 81.575C144.445 79.369 140.832 77.775 136.84 76.76L134.869 84.513ZM143.095 88.164C145.349 89.708 147.113 91.677 148.419 94.115L155.472 90.339C153.565 86.778 150.936 83.838 147.615 81.563L143.095 88.164ZM148.427 94.13C149.652 96.396 150.355 99.271 150.355 102.909H158.355C158.355 98.244 157.451 93.999 155.464 90.324L148.427 94.13ZM150.355 102.909V150H158.355V102.909H150.355ZM154.355 146H135.991V154H154.355V146ZM139.991 150V140.318H131.991V150H139.991ZM135.991 136.318H135.445V144.318H135.991V136.318ZM131.888 138.49C130.988 140.238 129.768 141.801 128.291 143.099L133.6 149.083C135.818 147.128 137.65 144.775 139.003 142.146L131.888 138.49ZM128.318 143.075C126.861 144.344 125.053 145.395 122.83 146.187L125.515 153.722C128.565 152.636 131.273 151.11 133.573 149.107L128.318 143.075ZM122.869 146.173C120.738 146.908 118.149 147.318 115.036 147.318V155.318C118.833 155.318 122.334 154.82 125.477 153.736L122.869 146.173ZM120.582 141.955C123.964 141.955 127.123 141.286 129.956 139.83L126.299 132.715C124.768 133.502 122.897 133.955 120.582 133.955V141.955ZM129.994 139.81C132.742 138.36 134.99 136.357 136.632 133.794L129.896 129.479C129.052 130.795 127.876 131.883 126.26 132.735L129.994 139.81ZM136.632 133.794C138.314 131.168 139.127 128.212 139.127 125.045H131.127C131.127 126.788 130.698 128.226 129.896 129.479L136.632 133.794ZM139.127 125.045V117.636H131.127V125.045H139.127ZM132.947 114.283C132.763 114.403 132.307 114.635 131.428 114.911L133.827 122.543C135.069 122.153 136.28 121.658 137.307 120.99L132.947 114.283ZM131.499 114.89C130.591 115.157 129.53 115.42 128.308 115.676L129.947 123.506C131.228 123.242 132.499 122.928 133.756 122.565L131.499 114.89ZM128.396 115.658C127.125 115.894 125.851 116.117 124.575 116.325L125.861 124.221C127.194 124.004 128.526 123.771 129.859 123.523L128.396 115.658ZM124.665 116.311C123.359 116.494 122.173 116.661 121.107 116.813L122.238 124.733C123.294 124.582 124.472 124.416 125.771 124.234L124.665 116.311ZM121.092 116.815C118.557 117.187 116.224 117.795 114.143 118.687L117.294 126.04C118.606 125.478 120.243 125.025 122.253 124.73L121.092 116.815ZM114.143 118.687C111.925 119.637 110.003 121.014 108.573 122.906L114.954 127.731C115.403 127.138 116.117 126.545 117.294 126.04L114.143 118.687ZM108.602 122.868C107.023 124.905 106.355 127.329 106.355 129.864H114.355C114.355 128.762 114.625 128.155 114.925 127.768L108.602 122.868ZM106.355 129.864C106.355 133.607 107.789 136.898 110.859 139.14L115.577 132.679C114.829 132.133 114.355 131.393 114.355 129.864H106.355ZM110.917 139.181C113.684 141.126 116.998 141.955 120.582 141.955V133.955C118.226 133.955 116.631 133.419 115.519 132.637L110.917 139.181ZM212.914 80.181H216.914V76.181H212.914V80.181ZM212.914 94.727V98.727H216.914V94.727H212.914ZM170.868 94.727H166.868V98.727H170.868V94.727ZM170.868 80.182V76.182H166.868V80.182H170.868ZM180.414 63.455V59.455H176.414V63.455H180.414ZM199.777 63.455H203.777V59.455H199.777V63.455ZM200.595 132.727L197.084 134.643L197.096 134.666L197.109 134.688L200.595 132.727ZM202.868 134.773L201.363 138.479L201.382 138.487L201.402 138.494L202.868 134.773ZM209.05 135.136L209.708 139.082L209.771 139.071L209.834 139.059L209.05 135.136ZM211.141 134.727L215.054 133.9L214.246 130.075L210.404 130.796L211.141 134.727ZM214.186 149.136L215.379 152.954L218.852 151.869L218.1 148.309L214.186 149.136ZM210.095 150.182L209.221 146.279L209.189 146.286L209.157 146.293L210.095 150.182ZM203.686 150.955L203.542 146.957L203.531 146.958L203.686 150.955ZM191.414 149.091L189.9 152.794L189.912 152.798L191.414 149.091ZM180.414 131.091L184.414 131.117V131.091H180.414ZM208.914 80.181V94.727H216.914V80.181H208.914ZM212.914 90.727H170.868V98.727H212.914V90.727ZM174.868 94.727V80.182H166.868V94.727H174.868ZM170.868 84.182H212.914V76.181L170.868 76.182V84.182ZM180.414 67.454H199.777V59.454H180.414V67.454ZM195.777 63.454V128.545H203.777V63.455L195.777 63.454ZM195.777 128.545C195.777 130.658 196.086 132.813 197.084 134.643L204.107 130.812C204.014 130.642 203.777 130.009 203.777 128.545H195.777ZM197.109 134.688C198.068 136.394 199.499 137.722 201.363 138.479L204.374 131.067C204.298 131.036 204.213 131 204.082 130.766L197.109 134.688ZM201.402 138.494C202.957 139.107 204.622 139.364 206.323 139.364V131.364C205.418 131.364 204.78 131.227 204.334 131.051L201.402 138.494ZM206.323 139.364C207.457 139.363 208.589 139.269 209.708 139.082L208.392 131.191C207.698 131.306 207.008 131.364 206.323 131.364V139.364ZM209.834 139.059C210.515 138.922 211.196 138.788 211.878 138.659L210.404 130.796C209.895 130.891 209.179 131.031 208.266 131.214L209.834 139.059ZM207.227 135.554L210.273 149.964L218.1 148.309L215.054 133.9L207.227 135.554ZM212.993 145.318C212.179 145.573 210.939 145.893 209.221 146.279L210.97 154.085C212.767 153.682 214.255 153.306 215.379 152.954L212.993 145.318ZM209.157 146.293C207.739 146.636 205.885 146.872 203.542 146.957L203.831 154.952C206.518 154.855 208.937 154.576 211.034 154.07L209.157 146.293ZM203.531 146.958C199.303 147.122 195.798 146.552 192.916 145.384L189.912 152.798C194.059 154.479 198.736 155.15 203.842 154.952L203.531 146.958ZM192.927 145.388C190.156 144.256 188.107 142.558 186.636 140.283L179.918 144.626C182.326 148.351 185.701 151.077 189.9 152.794L192.927 145.388ZM186.636 140.283C185.225 138.099 184.387 135.131 184.414 131.117L176.414 131.064C176.38 136.202 177.451 140.81 179.918 144.626L186.636 140.283ZM184.414 131.091V63.454H176.414V131.091H184.414ZM252.791 56.909H256.791V52.909H252.791V56.909ZM252.791 150V154H256.791V150H252.791ZM233.427 150H229.427V154H233.427V150ZM233.427 56.91V52.91H229.427V56.91H233.427ZM248.791 56.91V150H256.791V56.909L248.791 56.91ZM252.791 146H233.427V154H252.791V146ZM237.427 150V56.91H229.427V150H237.427ZM233.427 60.91H252.791V52.909L233.427 52.91V60.91ZM274.702 150H270.702V154H274.702V150ZM274.702 80.182V76.182H270.702V80.182H274.702ZM294.066 80.182H298.066V76.182H294.066V80.182ZM294.066 150V154H298.066V150H294.066ZM278.702 150V80.182H270.702V150H278.702ZM274.702 84.182H294.066V76.182H274.702V84.182ZM290.066 80.182V150H298.066V80.182H290.066ZM294.066 146H274.702V154H294.066V146Z"
       fill="url(#paint0_linear_26_2)"
       id="path4" />
  </g>
  <path
     d="M273.198 68.888C261.745 64.659 261.768 55.168 273.247 48.808C274.606 48.056 275.718 47.412 275.718 47.378C275.718 47.344 274.094 47.812 272.108 48.418C260.461 51.98 252.001 47.64 252 38.105C251.999 26.122 263.937 22.749 276.152 31.281C279.621 33.704 279.83 33.779 277.284 31.683C266.931 23.161 267.161 12.652 277.763 9.76099C289.799 6.47999 298.486 14.953 294.866 26.443C294.513 27.563 294.124 28.813 294.001 29.219C293.878 29.627 294.597 28.523 295.599 26.766C301.842 15.819 311.796 15.283 317.449 25.59C321.875 33.658 316.38 41.993 306.635 41.993C304.737 41.993 304.145 42.56 305.743 42.847C317.1 44.886 320.077 54.047 311.8 61.485C303.932 68.557 295.257 66.247 292.2 56.265L291.525 54.061L291.278 57.375C290.534 67.382 282.673 72.386 273.198 68.888ZM291.253 52.637C291.138 52.382 291.045 52.591 291.045 53.1C291.045 53.609 291.138 53.817 291.253 53.563C291.367 53.2648 291.367 52.9352 291.253 52.637ZM277.368 46.806C277.708 46.608 277.801 46.446 277.574 46.446C277.347 46.446 276.883 46.608 276.543 46.806C276.202 47.003 276.11 47.165 276.336 47.165C276.563 47.165 277.027 47.004 277.368 46.806ZM303.256 42.108C302.862 42.015 302.119 42.012 301.606 42.1C301.093 42.19 301.416 42.265 302.323 42.269C303.231 42.273 303.65 42.2 303.256 42.108Z"
     fill="url(#paint1_linear_26_2)"
     id="path5" />
  <path
     d="M265.391 27.27C263.219 26.475 262.51 24.337 264.314 24.022C264.583 23.975 266.484 23.757 268.538 23.536C272.808 23.076 272.419 23.202 272.283 22.332C272.179 21.666 272.115 21.662 267.846 22.119C262.599 22.68 260.932 22.04 262.759 20.166L263.433 19.474L267.74 20.039C271.907 20.586 272.053 20.585 272.226 19.991C272.465 19.167 272.498 19.178 267.657 18.538C263.123 17.939 261.85 17.317 262.708 16.116C263.595 14.876 264.377 14.929 268.414 16.499C272.685 18.16 272.67 18.158 272.988 17.311C273.189 16.776 272.777 16.551 268.905 15.092C263.9 13.205 262.998 12.162 265.502 11.156C266.389 10.801 266.575 10.878 269.293 12.726C274.048 15.962 273.872 15.876 274.349 15.206C274.737 14.661 274.559 14.49 271.118 12.101C267.6 9.658 267.479 9.541 267.574 8.634C267.787 6.574 269.964 7.014 272.022 9.534C273.748 11.646 273.78 11.666 274.513 11.09C275.103 10.625 275.101 10.622 272.528 7.61C270.223 4.915 269.974 4.518 270.167 3.855C270.784 1.737 273.137 2.295 274.447 4.871C276.968 9.827 276.953 9.805 277.761 9.637C278.663 9.448 278.732 9.705 276.685 5.607L275.017 2.267L275.889 1.133L276.762 0L278.082 0.528C279.613 1.14 279.606 1.124 280.023 5.404C280.197 7.194 280.433 8.739 280.548 8.836C280.735 8.993 281.982 8.861 281.982 8.684C281.983 8.644 281.833 6.964 281.652 4.95L281.322 1.289L282.47 0.649C284.93 -0.722 285.528 0.526 284.716 5.342L284.127 8.838L284.942 8.972C285.872 9.126 285.874 9.122 286.277 6.27C286.654 3.607 288.401 2.364 289.628 3.886C290.333 4.761 290.322 4.8 288.32 8.741C286.891 11.552 286.677 12.203 287.091 12.468C287.971 13.028 288.266 12.696 289.97 9.218C291.797 5.489 291.924 5.347 293.316 5.448C295.494 5.607 295.137 6.966 292.056 10.24C289.262 13.208 289.054 13.595 290.024 14.002C290.475 14.192 291.075 13.701 293.29 11.332C296.234 8.187 296.146 8.247 297.456 8.464C298.354 8.613 298.943 9.587 298.607 10.366C298.526 10.554 296.925 11.646 295.049 12.794C291.154 15.177 291.187 15.146 291.779 15.876C292.217 16.416 292.246 16.404 295.75 14.203C299.189 12.042 299.303 11.993 300.229 12.277C302.426 12.95 301.781 14.606 299.001 15.434L294.917 16.651C292.873 17.259 292.841 17.284 293.067 18.061C293.283 18.8 293.361 18.828 294.282 18.493C301.353 15.92 304.737 16.054 302.584 18.822C301.098 20.732 301.146 20.714 294.429 21.764C286.715 22.969 286.797 22.976 286.233 21.041C285.701 19.219 284.939 18.344 283.644 18.071C280.889 17.492 279.073 19.46 279.862 22.167C280.47 24.254 280.45 24.269 275.487 25.543C273.344 26.093 270.546 26.833 269.268 27.19C267.031 27.815 266.888 27.818 265.391 27.27ZM278.22 22.279C277.841 20.979 277.974 19.779 278.605 18.805C279.083 18.065 278.312 16.509 276.878 15.325C275.452 14.145 273.259 20.197 274.085 23.031L274.428 24.208L276.48 23.779L278.533 23.351L278.22 22.279ZM291.715 19.166C291.137 17.183 289.448 15.236 287.355 14.142C285.108 12.967 285.113 12.965 284.839 15.072L284.61 16.828L285.452 17.268C286.58 17.858 287.229 18.712 287.652 20.166L288.005 21.375L290.057 20.946L292.109 20.518L291.715 19.166ZM283.127 15.711C283.191 15.318 283.413 14.181 283.62 13.184C284.256 10.127 284.258 10.13 282.107 10.188C280.284 10.236 277.44 10.882 277.137 11.316C276.869 11.7 276.1 11.733 276.24 11.355C276.327 11.12 276.256 11.097 276.039 11.287C274.788 12.387 275.653 14.893 277.088 14.329C277.812 14.045 277.906 14.12 279.898 16.562C280.529 17.335 282.968 16.692 283.127 15.711ZM276.385 14.067C275.994 13.863 275.643 12.451 275.921 12.206C276.135 12.018 277.248 13.198 277.423 13.797C277.503 14.072 276.762 14.264 276.385 14.067Z"
     fill="url(#paint2_linear_26_2)"
     id="path6" />
  <path
     d="M274.293 67.583C263.504 63.555 263.526 54.515 274.339 48.457C275.619 47.74 276.666 47.127 276.666 47.094C276.666 47.061 275.136 47.508 273.266 48.086C262.295 51.477 254.325 47.344 254.324 38.261C254.323 26.846 265.569 23.633 277.075 31.761C280.343 34.069 280.54 34.14 278.141 32.143C268.389 24.026 268.606 14.015 278.592 11.263C289.93 8.13701 298.113 16.207 294.703 27.152C294.428 28.0325 294.157 28.9142 293.889 29.797C293.773 30.185 294.45 29.133 295.394 27.46C301.275 17.032 310.651 16.522 315.977 26.34C320.146 34.025 314.97 41.964 305.79 41.964C304.002 41.964 303.444 42.504 304.95 42.778C315.648 44.72 318.452 53.445 310.655 60.531C303.243 67.267 295.072 65.066 292.192 55.558L291.556 53.459L291.324 56.616C290.623 66.147 283.218 70.916 274.293 67.583ZM291.3 52.103C291.192 51.86 291.104 52.059 291.104 52.543C291.104 53.028 291.192 53.227 291.3 52.984C291.408 52.7002 291.408 52.3868 291.3 52.103ZM278.22 46.548C278.541 46.36 278.628 46.206 278.415 46.206C278.201 46.206 277.764 46.36 277.443 46.548C277.122 46.736 277.035 46.89 277.249 46.89C277.463 46.89 277.9 46.736 278.22 46.548ZM302.607 42.074C302.235 41.986 301.536 41.983 301.053 42.067C300.569 42.152 300.873 42.224 301.728 42.227C302.583 42.232 302.978 42.162 302.607 42.074Z"
     fill="#191919"
     id="path7" />
  <path
     d="M287.734 46.055C292.034 46.055 295.52 43.257 295.52 39.805C295.52 36.355 292.034 33.557 287.734 33.557C283.434 33.557 279.949 36.355 279.949 39.806C279.949 43.257 283.435 46.055 287.734 46.055Z"
     fill="url(#paint3_linear_26_2)"
     id="path8" />
  <path
     d="M287.755 45.67C291.699 45.67 294.896 43.082 294.896 39.89C294.896 36.696 291.699 34.107 287.755 34.107C283.811 34.107 280.615 36.696 280.615 39.889C280.615 43.082 283.812 45.671 287.755 45.671"
     fill="#191919"
     id="path9" />
  <defs
     id="defs22">
    <linearGradient
       id="paint0_linear_26_2"
       x1="-3.79872e-06"
       y1="103"
       x2="302"
       y2="103"
       gradientUnits="userSpaceOnUse">
      <stop
         stop-color="#7DFFB9"
         id="stop9" />
      <stop
         offset="0.5"
         stop-color="#7CE8C3"
         id="stop10" />
      <stop
         offset="1"
         stop-color="#EAADFA"
         id="stop11" />
    </linearGradient>
    <linearGradient
       id="paint1_linear_26_2"
       x1="252"
       y1="39.524"
       x2="319"
       y2="39.524"
       gradientUnits="userSpaceOnUse">
      <stop
         offset="0.002"
         stop-color="#7DFFB9"
         id="stop12" />
      <stop
         offset="0.484"
         stop-color="#6AFFB6"
         id="stop13" />
      <stop
         offset="0.532"
         stop-color="#8ADFCA"
         id="stop14" />
      <stop
         offset="0.596"
         stop-color="#B1C6DC"
         id="stop15" />
      <stop
         offset="1"
         stop-color="#EBADFA"
         id="stop16" />
    </linearGradient>
    <linearGradient
       id="paint2_linear_26_2"
       x1="260.521"
       y1="16.24"
       x2="299.58"
       y2="4.85499"
       gradientUnits="userSpaceOnUse">
      <stop
         stop-color="#84FFBA"
         id="stop17" />
      <stop
         offset="0.503"
         stop-color="#56FFB2"
         id="stop18" />
      <stop
         offset="1"
         stop-color="#FF95FF"
         id="stop19" />
    </linearGradient>
    <linearGradient
       id="paint3_linear_26_2"
       x1="279.588"
       y1="39.806"
       x2="295.881"
       y2="39.806"
       gradientUnits="userSpaceOnUse">
      <stop
         stop-color="#7DFFB9"
         id="stop20" />
      <stop
         offset="0.493"
         stop-color="#7CE8C3"
         id="stop21" />
      <stop
         offset="1"
         stop-color="#E9AEF9"
         id="stop22" />
    </linearGradient>
  </defs>
</svg>
