<svg xmlns="http://www.w3.org/2000/svg" width="319" height="181" fill="none"><mask id="b" width="295" height="109" x="4" y="47" fill="#000" maskUnits="userSpaceOnUse"><path fill="#fff" d="M4 47h295v109H4z"/><path d="M8.09 150V56.91h36.728q10.59 0 18.046 4.045 7.455 3.999 11.363 11.136 3.955 7.09 3.955 16.364 0 9.272-4 16.363T62.59 115.864q-7.545 3.954-18.273 3.954H20.91v-15.773h20.227q5.682 0 9.364-1.954 3.727-2 5.545-5.5 1.864-3.546 1.864-8.136 0-4.636-1.864-8.091-1.818-3.5-5.545-5.41-3.727-1.953-9.455-1.954H27.774v77zm106.946 1.318q-6.681 0-11.909-2.318-5.227-2.364-8.272-6.955-3-4.636-3-11.545 0-5.818 2.136-9.773t5.818-6.363q3.683-2.41 8.364-3.637a64 64 0 0 1 9.909-1.727q6.09-.636 9.818-1.182 3.728-.591 5.409-1.727 1.682-1.137 1.682-3.364v-.272q0-4.319-2.727-6.682-2.682-2.364-7.637-2.364-5.227 0-8.318 2.318-3.091 2.272-4.091 5.728L94.309 100q1.364-6.364 5.364-11 4-4.681 10.318-7.182 6.363-2.545 14.727-2.545 5.818 0 11.137 1.363 5.363 1.365 9.5 4.228a20.55 20.55 0 0 1 6.59 7.363q2.41 4.455 2.41 10.682V150h-18.364v-9.682h-.546a19.7 19.7 0 0 1-4.5 5.773q-2.817 2.454-6.772 3.864-3.955 1.363-9.137 1.363m5.546-13.363q4.272 0 7.545-1.682 3.273-1.727 5.137-4.637 1.863-2.908 1.863-6.591v-7.409q-.909.591-2.5 1.091-1.545.454-3.5.864-1.954.364-3.909.682-1.955.273-3.545.5-3.41.5-5.955 1.591t-3.954 2.954q-1.41 1.818-1.409 4.546 0 3.954 2.863 6.045 2.91 2.046 7.364 2.046m92.332-57.773v14.545h-42.046V80.182zm-32.5-16.727h19.363v65.09q0 2.682.818 4.182.819 1.455 2.273 2.046 1.5.591 3.455.591 1.364 0 2.727-.228 1.363-.272 2.091-.409l3.045 14.409q-1.454.455-4.091 1.046-2.635.636-6.409.773-7 .272-12.272-1.864-5.227-2.136-8.137-6.636-2.909-4.5-2.863-11.364zm72.377-6.546V150h-19.364V56.91zM274.702 150V80.182h19.364V150zm9.728-78.818q-4.319 0-7.41-2.864-3.045-2.91-3.045-6.954 0-4 3.045-6.864 3.091-2.91 7.41-2.91 4.317 0 7.363 2.91 3.091 2.864 3.091 6.864 0 4.045-3.091 6.954-3.046 2.864-7.363 2.864"/></mask><path fill="#191919" d="M8.09 150V56.91h36.728q10.59 0 18.046 4.045 7.455 3.999 11.363 11.136 3.955 7.09 3.955 16.364 0 9.272-4 16.363T62.59 115.864q-7.545 3.954-18.273 3.954H20.91v-15.773h20.227q5.682 0 9.364-1.954 3.727-2 5.545-5.5 1.864-3.546 1.864-8.136 0-4.636-1.864-8.091-1.818-3.5-5.545-5.41-3.727-1.953-9.455-1.954H27.774v77zm106.946 1.318q-6.681 0-11.909-2.318-5.227-2.364-8.272-6.955-3-4.636-3-11.545 0-5.818 2.136-9.773t5.818-6.363q3.683-2.41 8.364-3.637a64 64 0 0 1 9.909-1.727q6.09-.636 9.818-1.182 3.728-.591 5.409-1.727 1.682-1.137 1.682-3.364v-.272q0-4.319-2.727-6.682-2.682-2.364-7.637-2.364-5.227 0-8.318 2.318-3.091 2.272-4.091 5.728L94.309 100q1.364-6.364 5.364-11 4-4.681 10.318-7.182 6.363-2.545 14.727-2.545 5.818 0 11.137 1.363 5.363 1.365 9.5 4.228a20.55 20.55 0 0 1 6.59 7.363q2.41 4.455 2.41 10.682V150h-18.364v-9.682h-.546a19.7 19.7 0 0 1-4.5 5.773q-2.817 2.454-6.772 3.864-3.955 1.363-9.137 1.363m5.546-13.363q4.272 0 7.545-1.682 3.273-1.727 5.137-4.637 1.863-2.908 1.863-6.591v-7.409q-.909.591-2.5 1.091-1.545.454-3.5.864-1.954.364-3.909.682-1.955.273-3.545.5-3.41.5-5.955 1.591t-3.954 2.954q-1.41 1.818-1.409 4.546 0 3.954 2.863 6.045 2.91 2.046 7.364 2.046m92.332-57.773v14.545h-42.046V80.182zm-32.5-16.727h19.363v65.09q0 2.682.818 4.182.819 1.455 2.273 2.046 1.5.591 3.455.591 1.364 0 2.727-.228 1.363-.272 2.091-.409l3.045 14.409q-1.454.455-4.091 1.046-2.635.636-6.409.773-7 .272-12.272-1.864-5.227-2.136-8.137-6.636-2.909-4.5-2.863-11.364zm72.377-6.546V150h-19.364V56.91zM274.702 150V80.182h19.364V150zm9.728-78.818q-4.319 0-7.41-2.864-3.045-2.91-3.045-6.954 0-4 3.045-6.864 3.091-2.91 7.41-2.91 4.317 0 7.363 2.91 3.091 2.864 3.091 6.864 0 4.045-3.091 6.954-3.046 2.864-7.363 2.864"/><path fill="url(#a)" d="M8.09 150h-4v4h4zm0-93.09v-4h-4v4zm54.774 4.045-1.908 3.515.008.005.008.004zM74.227 72.09l-3.508 1.922.007.013.008.013zm-11.636 43.773-1.848-3.548-.009.005zm-41.682 3.954h-4v4h4zm0-15.773v-4h-4v4zm29.591-1.954 1.876 3.533.007-.004.008-.004zm5.545-5.5-3.54-1.861-.005.008-.004.009zm0-16.227-3.55 1.844.015.027.015.028zm-5.545-5.41-1.858 3.543.017.009.017.009zM27.773 73v-4h-4v4zm0 77v4h4v-4zm-15.682 0V56.91h-8V150zm-4-89.09h36.727v-8H8.091zm36.727 0c6.557 0 11.882 1.25 16.138 3.56l3.816-7.031c-5.684-3.084-12.39-4.53-19.954-4.53zm16.154 3.57c4.316 2.315 7.529 5.483 9.747 9.533l7.016-3.844c-2.993-5.465-7.356-9.721-12.98-12.74zm9.762 9.56c2.26 4.05 3.448 8.816 3.448 14.414h8c0-6.765-1.448-12.908-4.461-18.311zm3.448 14.414c0 5.59-1.2 10.35-3.484 14.399l6.968 3.93c3.05-5.406 4.516-11.555 4.516-18.329zm-3.484 14.399c-2.266 4.017-5.544 7.165-9.955 9.463l3.696 7.095c5.71-2.975 10.16-7.19 13.227-12.628zm-9.964 9.468c-4.328 2.268-9.747 3.497-16.416 3.497v8c7.635 0 14.397-1.407 20.13-4.411zm-16.416 3.497H20.91v8h23.41zm-19.409 4v-15.773h-8v15.773zm-4-11.773h20.227v-8H20.91zm20.227 0c4.216 0 8.036-.72 11.24-2.421l-3.752-7.066c-1.705.905-4.128 1.487-7.488 1.487zm11.255-2.429c3.14-1.685 5.594-4.081 7.204-7.181l-7.1-3.688c-.813 1.566-2.057 2.838-3.886 3.82zm7.195-7.164c1.586-3.016 2.323-6.384 2.323-9.998h-8c0 2.508-.505 4.565-1.404 6.276zm2.323-9.998c0-3.633-.733-7.006-2.343-9.99l-7.04 3.799c.874 1.622 1.383 3.643 1.383 6.191zm-2.314-9.934c-1.62-3.118-4.095-5.499-7.271-7.126l-3.648 7.12c1.794.92 3.015 2.145 3.82 3.694zm-7.237-7.108C49.13 69.72 45.288 69 41.046 69v8c3.393 0 5.854.583 7.596 1.497zM41.046 69H27.772v8h13.272zm-17.273 4v77h8V73zm4 73H8.09v8h19.682zm75.354 3-1.648 3.645.013.006.014.006zm-8.272-6.955-3.359 2.173.013.02.012.019zm-.864-21.318-3.52-1.901zm5.818-6.363-2.19-3.348zm8.364-3.637-1.005-3.871-.01.002zm9.909-1.727.384 3.982.016-.002.015-.002zm9.818-1.182.579 3.958.024-.003.023-.004zm5.409-1.727-2.239-3.314zm-1.045-10.318-2.645 3 .012.012.013.01zm-15.955-.046 2.37 3.223.015-.011.015-.012zm-4.091 5.728-.324 3.986 3.258.265.908-3.139zM94.309 100l-3.911-.838-.955 4.456 4.542.369zm5.364-11 3.028 2.613.007-.007.006-.008zm10.318-7.182 1.472 3.72.007-.003.006-.003zm25.864-1.182-.994 3.875.008.002zm9.5 4.228-2.277 3.288.008.006.009.006zm6.59 7.363-3.526 1.888.004.008.004.007zm2.41 57.773v4h4v-4zm-18.364 0h-4v4h4zm0-9.682h4v-4h-4zm-.546 0v-4h-2.441l-1.116 2.172zm-4.5 5.773 2.628 3.016.013-.012.014-.012zm-6.772 3.864 1.304 3.781.019-.007.019-.007zm3.954-13.682 1.829 3.557.019-.01.019-.01zm5.137-4.637-3.368-2.157zm1.863-14h4v-7.37l-6.18 4.017zm-2.5 1.091 1.129 3.838.035-.011.036-.011zm-3.5.864.732 3.932.044-.008.044-.009zm-3.909.682.553 3.961.045-.006.045-.007zm-3.545.5-.566-3.96-.007.001-.008.001zm-5.955 1.591 1.576 3.676zm-3.954 2.954 3.161 2.45.015-.018.014-.019zm1.454 10.591-2.359 3.231.029.021.029.02zm1.818 11.409c-3.989 0-7.392-.691-10.287-1.975l-3.243 7.314c4.074 1.806 8.61 2.661 13.53 2.661zm-10.261-1.963c-2.829-1.279-4.99-3.114-6.587-5.521l-6.667 4.423c2.464 3.714 5.818 6.516 9.958 8.388zm-6.562-5.483c-1.487-2.298-2.358-5.344-2.358-9.372h-8c0 5.184 1.129 9.835 3.641 13.718zm-2.358-9.372c0-3.405.626-5.966 1.655-7.872l-7.038-3.802c-1.82 3.367-2.617 7.321-2.617 11.674zm1.655-7.872c1.115-2.064 2.603-3.683 4.489-4.917l-4.38-6.695c-3.023 1.979-5.414 4.602-7.147 7.81zm4.489-4.917c2.059-1.348 4.443-2.395 7.188-3.114l-2.029-7.739c-3.497.917-6.689 2.294-9.539 4.158zm7.179-3.112a60 60 0 0 1 9.288-1.617l-.768-7.964c-3.651.353-7.162.963-10.53 1.838zm9.319-1.621c4.087-.427 7.42-.827 9.982-1.202l-1.158-7.916c-2.408.353-5.62.74-9.655 1.162zm10.029-1.209c2.65-.42 5.16-1.106 7.023-2.364l-4.479-6.628c-.381.257-1.476.723-3.796 1.091zm7.023-2.364c2.342-1.583 3.442-4.017 3.442-6.678h-8c0 .12-.011.184-.016.205-.004.017-.002 0 .018-.039a.5.5 0 0 1 .072-.106c.024-.028.032-.029.005-.01zm3.442-6.678v-.272h-8v.272zm0-.272c0-3.79-1.24-7.22-4.108-9.705l-5.239 6.046c.769.666 1.347 1.69 1.347 3.659zm-4.083-9.683c-2.758-2.431-6.38-3.363-10.281-3.363v8c2.705 0 4.174.644 4.992 1.365zm-10.281-3.363c-4.048 0-7.757.898-10.718 3.118l4.8 6.4c1.161-.87 2.997-1.518 5.918-1.518zm-10.687 3.096c-2.72 2-4.635 4.63-5.564 7.837l7.684 2.225c.405-1.398 1.217-2.587 2.619-3.617zm-1.398 4.963-17.91-1.455-.647 7.974 17.909 1.454zm-14.322 3.37c.778-3.629 2.281-6.674 4.481-9.225l-6.057-5.226c-3.133 3.631-5.206 7.919-6.246 12.775zm4.494-9.24c2.2-2.575 5.079-4.608 8.749-6.06l-2.944-7.44c-4.755 1.882-8.754 4.637-11.888 8.304zm8.762-6.066c3.679-1.471 8.066-2.26 13.242-2.26v-8c-5.976 0-11.406.91-16.213 2.832zm13.242-2.26c3.564 0 6.941.418 10.143 1.239l1.987-7.75c-3.889-.996-7.936-1.488-12.13-1.488zm10.151 1.241c3.16.803 5.88 2.027 8.209 3.64l4.553-6.578c-3.186-2.206-6.799-3.8-10.791-4.815zm8.226 3.651c2.254 1.544 4.018 3.513 5.324 5.951l7.053-3.776c-1.907-3.561-4.536-6.501-7.857-8.776zm5.332 5.966c1.225 2.266 1.928 5.141 1.928 8.779h8c0-4.665-.904-8.91-2.891-12.585zm1.928 8.779V150h8v-47.091zm4 43.091h-18.364v8h18.364zm-14.364 4v-9.682h-8V150zm-4-13.682h-.546v8h.546zm-4.103 2.172a15.7 15.7 0 0 1-3.597 4.609l5.309 5.984a23.7 23.7 0 0 0 5.403-6.937zm-3.57 4.585c-1.457 1.269-3.265 2.32-5.488 3.112l2.685 7.535c3.05-1.086 5.758-2.612 8.058-4.615zm-5.449 3.098c-2.131.735-4.72 1.145-7.833 1.145v8c3.797 0 7.298-.498 10.441-1.582zm-2.287-4.218c3.382 0 6.541-.669 9.374-2.125l-3.657-7.115c-1.531.787-3.402 1.24-5.717 1.24zm9.412-2.145c2.748-1.45 4.996-3.453 6.638-6.016l-6.736-4.315c-.844 1.316-2.02 2.404-3.636 3.256zm6.638-6.016c1.682-2.626 2.495-5.582 2.495-8.749h-8c0 1.743-.429 3.181-1.231 4.434zm2.495-8.749v-7.409h-8v7.409zm-6.18-10.762c-.184.12-.64.352-1.519.628l2.399 7.632c1.242-.39 2.453-.885 3.48-1.553zm-1.448.607c-.908.267-1.969.53-3.191.786l1.639 7.83a50 50 0 0 0 3.809-.941zm-3.103.768a176 176 0 0 1-3.821.667l1.286 7.896q1.999-.326 3.998-.698zm-3.731.653q-1.959.274-3.558.502l1.131 7.92q1.584-.226 3.533-.499zm-3.573.504c-2.535.372-4.868.98-6.949 1.872l3.151 7.353c1.312-.562 2.949-1.015 4.959-1.31zm-6.949 1.872c-2.218.95-4.14 2.327-5.57 4.219l6.381 4.825c.449-.593 1.163-1.186 2.34-1.691zm-5.541 4.181c-1.579 2.037-2.247 4.461-2.247 6.996h8c0-1.102.27-1.709.57-2.096zm-2.247 6.996c0 3.743 1.434 7.034 4.504 9.276l4.718-6.461c-.748-.546-1.222-1.286-1.222-2.815zm4.562 9.317c2.767 1.945 6.081 2.774 9.665 2.774v-8c-2.356 0-3.951-.536-5.063-1.318zm101.997-59h4v-4h-4zm0 14.546v4h4v-4zm-42.046 0h-4v4h4zm0-14.545v-4h-4v4zm9.546-16.727v-4h-4v4zm19.363 0h4v-4h-4zm.818 69.272-3.511 1.916.012.023.013.022zm2.273 2.046-1.505 3.706.019.008.02.007zm6.182.363.658 3.946.063-.011.063-.012zm2.091-.409 3.913-.827-.808-3.825-3.842.721zm3.045 14.409 1.193 3.818 3.473-1.085-.752-3.56zm-4.091 1.046-.874-3.903-.032.007-.032.007zm-6.409.773-.144-3.998-.011.001zm-12.272-1.864-1.514 3.703.012.004zm-8.137-6.636 3.359-2.172zm-2.863-11.364 4 .026v-.026zm28.5-50.91v14.546h8V80.182zm4 10.546h-42.046v8h42.046zm-38.046 4V80.182h-8v14.545zm-4-10.545h42.046v-8h-42.046zm9.546-16.728h19.363v-8h-19.363zm15.363-4v65.091h8v-65.09zm0 65.091c0 2.113.309 4.268 1.307 6.098l7.023-3.831c-.093-.17-.33-.803-.33-2.267zm1.332 6.143c.959 1.706 2.39 3.034 4.254 3.791l3.011-7.412c-.076-.031-.161-.067-.292-.301zm4.293 3.806c1.555.613 3.22.87 4.921.87v-8c-.905 0-1.543-.137-1.989-.313zm4.921.87a20.6 20.6 0 0 0 3.385-.282l-1.316-7.891q-1.041.173-2.069.173zm3.511-.305a177 177 0 0 1 2.044-.4l-1.474-7.863c-.509.095-1.225.235-2.138.418zm-2.607-3.505 3.046 14.41 7.827-1.655-3.046-14.409zm5.766 9.764c-.814.255-2.054.575-3.772.961l1.749 7.806c1.797-.403 3.285-.779 4.409-1.131zm-3.836.975c-1.418.343-3.272.579-5.615.664l.289 7.995c2.687-.097 5.106-.376 7.203-.882zm-5.626.665c-4.228.164-7.733-.406-10.615-1.574l-3.004 7.414c4.147 1.681 8.824 2.352 13.93 2.154zm-10.604-1.57c-2.771-1.132-4.82-2.83-6.291-5.105l-6.718 4.343c2.408 3.725 5.783 6.451 9.982 8.168zm-6.291-5.105c-1.411-2.184-2.249-5.152-2.222-9.166l-8-.053c-.034 5.138 1.037 9.746 3.504 13.562zm-2.222-9.192V63.454h-8v67.637zm68.377-74.182h4v-4h-4zm0 93.091v4h4v-4zm-19.364 0h-4v4h4zm0-93.09v-4h-4v4zm15.364 0V150h8V56.91zm4 89.09h-19.364v8h19.364zm-15.364 4V56.91h-8V150zm-4-89.09h19.364v-8h-19.364zM274.702 150h-4v4h4zm0-69.818v-4h-4v4zm19.364 0h4v-4h-4zm0 69.818v4h4v-4zM277.02 68.318l-2.762 2.893.022.02.022.021zm0-13.818 2.741 2.914.001-.001zm14.773 0-2.763 2.892.022.021.023.021zm0 13.818 2.74 2.914.002-.001zM278.702 150V80.182h-8V150zm-4-65.818h19.364v-8h-19.364zm15.364-4V150h8V80.182zm4 65.818h-19.364v8h19.364zm-9.636-78.818c-1.899 0-3.39-.593-4.691-1.798l-5.437 5.868c2.82 2.613 6.268 3.93 10.128 3.93zm-4.647-1.756c-1.276-1.22-1.808-2.508-1.808-4.062h-8c0 3.839 1.499 7.187 4.283 9.847zm-1.808-4.062c0-1.509.518-2.758 1.786-3.95l-5.481-5.828c-2.793 2.627-4.305 5.953-4.305 9.778zm1.787-3.951c1.304-1.228 2.788-1.822 4.668-1.822v-8c-3.879 0-7.334 1.345-10.151 3.996zm4.668-1.822c1.878 0 3.335.593 4.6 1.801l5.526-5.784c-2.795-2.67-6.247-4.017-10.126-4.017zm4.645 1.843c1.292 1.198 1.809 2.442 1.809 3.93h8c0-3.846-1.544-7.178-4.372-9.798zm1.809 3.93c0 1.534-.53 2.816-1.832 4.041l5.483 5.826c2.819-2.653 4.349-6.008 4.349-9.867zm-1.831 4.04c-1.262 1.187-2.726 1.778-4.623 1.778v8c3.859 0 7.304-1.318 10.103-3.95z" mask="url(#b)"/><ellipse cx="284.5" cy="61.5" fill="#191919" rx="22.5" ry="14.5"/><path fill="url(#c)" d="M273.198 68.888c-11.453-4.229-11.43-13.72.049-20.08 1.359-.752 2.471-1.396 2.471-1.43s-1.624.434-3.61 1.04C260.461 51.98 252.001 47.64 252 38.105c-.001-11.983 11.937-15.356 24.152-6.824 3.469 2.423 3.678 2.498 1.132.402-10.353-8.522-10.123-19.031.479-21.922 12.036-3.281 20.723 5.192 17.103 16.682-.353 1.12-.742 2.37-.865 2.776-.123.408.596-.696 1.598-2.453 6.243-10.947 16.197-11.483 21.85-1.176 4.426 8.068-1.069 16.403-10.814 16.403-1.898 0-2.49.567-.892.854 11.357 2.039 14.334 11.2 6.057 18.638-7.868 7.072-16.543 4.762-19.6-5.22l-.675-2.204-.247 3.314c-.744 10.007-8.605 15.012-18.08 11.514m18.055-16.252c-.115-.255-.208-.046-.208.463s.093.717.208.463a1.3 1.3 0 0 0 0-.926m-13.885-5.831c.34-.198.433-.36.206-.36s-.691.162-1.031.36c-.341.197-.433.359-.207.359.227 0 .691-.162 1.032-.36m25.888-4.697c-.394-.093-1.137-.096-1.65-.008-.513.09-.19.165.717.169.908.004 1.327-.069.933-.161"/><path fill="url(#d)" d="M265.391 27.27c-2.172-.795-2.881-2.933-1.077-3.248.269-.047 2.17-.265 4.224-.486 4.27-.46 3.881-.334 3.745-1.204-.104-.666-.168-.67-4.437-.213-5.247.561-6.914-.079-5.087-1.953l.674-.692 4.307.565c4.167.547 4.313.546 4.486-.048.239-.824.272-.813-4.569-1.453-4.534-.599-5.807-1.221-4.949-2.422.887-1.24 1.669-1.187 5.706.383 4.271 1.661 4.256 1.659 4.574.812.201-.535-.211-.76-4.083-2.219-5.005-1.887-5.907-2.93-3.403-3.936.887-.355 1.073-.278 3.791 1.57 4.755 3.236 4.579 3.15 5.056 2.48.388-.545.21-.716-3.231-3.105-3.518-2.443-3.639-2.56-3.544-3.467.213-2.06 2.39-1.62 4.448.9 1.726 2.112 1.758 2.132 2.491 1.556.59-.465.588-.468-1.985-3.48-2.305-2.695-2.554-3.092-2.361-3.755.617-2.118 2.97-1.56 4.28 1.016 2.521 4.956 2.506 4.934 3.314 4.766.902-.189.971.068-1.076-4.03l-1.668-3.34.872-1.134.873-1.133 1.32.528c1.531.612 1.524.596 1.941 4.876.174 1.79.41 3.335.525 3.432.187.157 1.434.025 1.434-.152.001-.04-.149-1.72-.33-3.734l-.33-3.661 1.148-.64c2.46-1.371 3.058-.123 2.246 4.693l-.589 3.496.815.134c.93.154.932.15 1.335-2.702.377-2.663 2.124-3.906 3.351-2.384.705.875.694.914-1.308 4.855-1.429 2.811-1.643 3.462-1.229 3.727.88.56 1.175.228 2.879-3.25 1.827-3.729 1.954-3.871 3.346-3.77 2.178.159 1.821 1.518-1.26 4.792-2.794 2.968-3.002 3.355-2.032 3.762.451.19 1.051-.301 3.266-2.67 2.944-3.145 2.856-3.085 4.166-2.868.898.149 1.487 1.123 1.151 1.902-.081.188-1.682 1.28-3.558 2.428-3.895 2.383-3.862 2.352-3.27 3.082.438.54.467.528 3.971-1.673 3.439-2.161 3.553-2.21 4.479-1.926 2.197.673 1.552 2.329-1.228 3.157l-4.084 1.217c-2.044.608-2.076.633-1.85 1.41.216.739.294.767 1.215.432 7.071-2.573 10.455-2.439 8.302.329-1.486 1.91-1.438 1.892-8.155 2.942-7.714 1.205-7.632 1.212-8.196-.723-.532-1.822-1.294-2.697-2.589-2.97-2.755-.579-4.571 1.389-3.782 4.096.608 2.087.588 2.102-4.375 3.376-2.143.55-4.941 1.29-6.219 1.647-2.237.625-2.38.628-3.877.08m12.829-4.991c-.379-1.3-.246-2.5.385-3.474.478-.74-.293-2.296-1.727-3.48-1.426-1.18-3.619 4.872-2.793 7.706l.343 1.177 2.052-.429 2.053-.428zm13.495-3.113c-.578-1.983-2.267-3.93-4.36-5.024-2.247-1.175-2.242-1.177-2.516.93l-.229 1.756.842.44c1.128.59 1.777 1.444 2.2 2.898l.353 1.209 2.052-.429 2.052-.428zm-8.588-3.455c.064-.393.286-1.53.493-2.527.636-3.057.638-3.054-1.513-2.996-1.823.048-4.667.694-4.97 1.128-.268.384-1.037.417-.897.039.087-.235.016-.258-.201-.068-1.251 1.1-.386 3.606 1.049 3.042.724-.284.818-.209 2.81 2.233.631.773 3.07.13 3.229-.851m-6.742-1.644c-.391-.204-.742-1.616-.464-1.861.214-.188 1.327.992 1.502 1.591.08.275-.661.467-1.038.27"/><path fill="#191919" d="M274.293 67.583c-10.789-4.028-10.767-13.068.046-19.126 1.28-.717 2.327-1.33 2.327-1.363s-1.53.414-3.4.992c-10.971 3.391-18.941-.742-18.942-9.825-.001-11.415 11.245-14.628 22.751-6.5 3.268 2.308 3.465 2.379 1.066.382-9.752-8.117-9.535-18.128.451-20.88 11.338-3.126 19.521 4.944 16.111 15.889a319 319 0 0 0-.814 2.645c-.116.388.561-.664 1.505-2.337 5.881-10.428 15.257-10.938 20.583-1.12 4.169 7.685-1.007 15.624-10.187 15.624-1.788 0-2.346.54-.84.814 10.698 1.942 13.502 10.667 5.705 17.753-7.412 6.736-15.583 4.535-18.463-4.973l-.636-2.099-.232 3.157c-.701 9.531-8.106 14.3-17.031 10.967m17.007-15.48c-.108-.243-.196-.044-.196.44 0 .485.088.684.196.441a1.24 1.24 0 0 0 0-.881m-13.08-5.555c.321-.188.408-.342.195-.342-.214 0-.651.154-.972.342s-.408.342-.194.342.651-.154.971-.342m24.387-4.474c-.372-.088-1.071-.091-1.554-.007-.484.085-.18.157.675.16.855.005 1.25-.065.879-.153"/><path fill="url(#e)" d="M287.734 46.055c4.3 0 7.786-2.798 7.786-6.25 0-3.45-3.486-6.248-7.786-6.248s-7.785 2.798-7.785 6.249 3.486 6.249 7.785 6.249"/><path fill="#191919" d="M287.755 45.67c3.944 0 7.141-2.588 7.141-5.78 0-3.194-3.197-5.783-7.141-5.783s-7.14 2.589-7.14 5.782 3.197 5.782 7.14 5.782"/><defs><linearGradient id="a" x1="0" x2="302" y1="103" y2="103" gradientUnits="userSpaceOnUse"><stop stop-color="#7DFFB9"/><stop offset=".5" stop-color="#7CE8C3"/><stop offset="1" stop-color="#EAADFA"/></linearGradient><linearGradient id="c" x1="252" x2="319" y1="39.524" y2="39.524" gradientUnits="userSpaceOnUse"><stop offset=".002" stop-color="#7DFFB9"/><stop offset=".484" stop-color="#6AFFB6"/><stop offset=".532" stop-color="#8ADFCA"/><stop offset=".596" stop-color="#B1C6DC"/><stop offset="1" stop-color="#EBADFA"/></linearGradient><linearGradient id="d" x1="260.521" x2="299.58" y1="16.24" y2="4.855" gradientUnits="userSpaceOnUse"><stop stop-color="#84FFBA"/><stop offset=".503" stop-color="#56FFB2"/><stop offset="1" stop-color="#FF95FF"/></linearGradient><linearGradient id="e" x1="279.588" x2="295.881" y1="39.806" y2="39.806" gradientUnits="userSpaceOnUse"><stop stop-color="#7DFFB9"/><stop offset=".493" stop-color="#7CE8C3"/><stop offset="1" stop-color="#E9AEF9"/></linearGradient></defs></svg>