<svg width="855" height="578" viewBox="0 0 855 578" fill="none" xmlns="http://www.w3.org/2000/svg">
<g id="undraw_medical_research_qg4d 1" clip-path="url(#clip0_17_2)">
<path id="Vector" d="M261.557 268H151.557V391H261.557V268Z" fill="#CCCCCC"/>
<path id="Vector_2" d="M95.557 576H39.557L33.557 528H101.557L95.557 576Z" fill="#E6E6E6"/>
<path id="Vector_3" d="M208.007 541.232L206.117 567.067C206.032 568.237 206.197 569.411 206.603 570.511C207.008 571.611 207.644 572.612 208.468 573.446C209.292 574.281 210.285 574.929 211.38 575.348C212.475 575.767 213.647 575.947 214.817 575.877L228.087 575.073C228.702 575.035 229.301 574.863 229.842 574.568C230.383 574.273 230.852 573.863 231.216 573.366C231.58 572.869 231.83 572.298 231.949 571.694C232.068 571.089 232.052 570.466 231.902 569.868L224.537 540.406L208.007 541.232Z" fill="#E6E6E6"/>
<path id="Vector_4" d="M319.003 556.509C334.62 560.163 345.777 565.356 353.106 572.384C355.716 574.867 359.131 576.331 362.729 576.509C367.326 576.751 371.084 576.236 373.909 574.974C374.632 574.655 375.258 574.148 375.719 573.506C376.181 572.864 376.462 572.111 376.534 571.323C376.619 570.523 376.489 569.715 376.157 568.982C375.825 568.25 375.303 567.619 374.645 567.156L337.606 540.802L321.873 547.096L318.202 550.766C317.805 551.163 317.505 551.648 317.327 552.18C317.148 552.713 317.096 553.28 317.173 553.837C317.251 554.393 317.456 554.924 317.774 555.388C318.091 555.852 318.512 556.236 319.003 556.509Z" fill="#E6E6E6"/>
<path id="Vector_5" d="M270.94 134.695L165.067 133.714C165.333 118.294 168.921 103.151 176.764 89.6005C181.914 80.701 181.803 71.0157 180.562 62.8561C178.646 50.2641 183.101 37.3806 192.999 29.3649C200.563 23.2285 210.11 20.0698 219.842 20.4835L221.897 20.5692C228.594 20.8475 235.113 22.8036 240.856 26.258C246.6 29.7123 251.383 34.5542 254.768 40.339C258.208 46.5146 259.595 53.624 258.729 60.6398C258.058 67.241 259.664 73.9096 263.42 80.6416C269.9 95.4242 271.303 114.34 270.94 134.695Z" fill="#2F2E41"/>
<path id="Vector_6" d="M341.775 542.176L320.996 547.597L219.813 327.161L222.975 434.669L226.137 542.176H205.358C183.154 441.018 143.067 324.27 161.09 287.41L268.597 281.086L341.775 542.176Z" fill="#7DFABB"/>
<path id="Vector_7" d="M218.909 97.6912C234.376 97.6912 246.915 85.1524 246.915 69.685C246.915 54.2177 234.376 41.6789 218.909 41.6789C203.442 41.6789 190.903 54.2177 190.903 69.685C190.903 85.1524 203.442 97.6912 218.909 97.6912Z" fill="#FFB9B9"/>
<path id="Vector_8" d="M243.302 121.18L197.227 118.47C201.742 108.106 203.546 98.1264 201.744 88.657H236.074C235.996 95.9276 239.614 108.504 243.302 121.18Z" fill="#FFB9B9"/>
<path id="Vector_9" d="M272.211 289.217L171.028 296.445L181.417 117.115L199.034 112.146L218.909 116.663L238.784 106.725L251.432 111.243L272.211 289.217Z" fill="#7DFABB"/>
<path id="Vector_10" d="M188.193 418.407L119.081 402.597C139.631 334.449 176.654 178.546 164.704 122.987L200.841 106.725L188.193 418.407Z" fill="#E6E6E6"/>
<path id="Vector_11" d="M154.766 221.46L128.567 205.199L150.91 139.759C153.402 133.007 158.175 127.337 164.404 123.731L171.931 119.373L167.414 185.323L154.766 221.46Z" fill="#E6E6E6"/>
<path id="Vector_12" d="M332.289 403.501C310.476 416.121 255.95 423.156 232.009 414.342C230.247 352.769 226.792 178.603 237.881 104.919L277.632 121.18L274.018 169.965C255.014 211.698 310.198 357.054 332.289 403.501Z" fill="#E6E6E6"/>
<path id="Vector_13" d="M329.127 213.33L304.734 205.199L272.211 168.158L277.632 121.18L331.837 197.068L329.127 213.33Z" fill="#E6E6E6"/>
<path id="Vector_14" d="M252.681 248.494C253.08 250.245 254.158 251.767 255.677 252.725C257.196 253.684 259.034 254 260.786 253.606L281.492 248.917L278.5 235.7L257.793 240.389C256.041 240.786 254.518 241.863 253.559 243.383C252.6 244.903 252.285 246.741 252.681 248.494Z" fill="#FFB9B9"/>
<path id="Vector_15" d="M243.302 62.4576C227.746 56.0611 212.382 55.5982 197.227 61.5542L190.903 38.9686H248.722L243.302 62.4576Z" fill="#2F2E41"/>
<path id="Vector_16" d="M271.308 233.205L283.052 254.887C302.806 249.378 319.926 232.008 336.354 211.523L331.837 197.068L303.831 204.295L271.308 233.205Z" fill="#E6E6E6"/>
<path id="Vector_17" d="M262.725 188.485H259.111C259.111 137.375 248.588 101.757 238.333 101.757L237.429 98.1429C246.626 98.1429 252.49 112.967 255.789 125.403C260.262 142.263 262.725 164.666 262.725 188.485Z" fill="#3F3D56"/>
<path id="Vector_18" d="M179.61 175.837H175.996C175.996 129.028 186.593 99.9498 202.196 99.9498L201.292 103.563C190.5 103.563 179.61 125.911 179.61 175.837Z" fill="#3F3D56"/>
<path id="Vector_19" d="M260.918 198.423C265.908 198.423 269.953 194.378 269.953 189.389C269.953 184.399 265.908 180.355 260.918 180.355C255.929 180.355 251.884 184.399 251.884 189.389C251.884 194.378 255.929 198.423 260.918 198.423Z" fill="#3F3D56"/>
<path id="Vector_20" d="M165.155 197.52H161.542C161.542 184.568 168.836 174.031 177.803 174.031V177.644C170.829 177.644 165.155 186.56 165.155 197.52Z" fill="#3F3D56"/>
<path id="Vector_21" d="M194.065 197.52H190.451C190.451 186.56 184.777 177.644 177.803 177.644V174.031C186.77 174.031 194.065 184.568 194.065 197.52Z" fill="#3F3D56"/>
<path id="Vector_22" d="M192.258 202.037C194.254 202.037 195.872 200.419 195.872 198.423C195.872 196.427 194.254 194.809 192.258 194.809C190.262 194.809 188.644 196.427 188.644 198.423C188.644 200.419 190.262 202.037 192.258 202.037Z" fill="#3F3D56"/>
<path id="Vector_23" d="M163.348 202.037C165.344 202.037 166.962 200.419 166.962 198.423C166.962 196.427 165.344 194.809 163.348 194.809C161.353 194.809 159.735 196.427 159.735 198.423C159.735 200.419 161.353 202.037 163.348 202.037Z" fill="#3F3D56"/>
<path id="Vector_24" d="M118.177 165.193L140.724 169.219L192.258 242.495L164.88 236.053L118.177 165.193Z" fill="#E5AFF8"/>
<path id="Vector_25" d="M114.178 164.296C113.834 164.301 113.498 164.398 113.205 164.578C112.912 164.757 112.673 165.012 112.512 165.316C112.351 165.619 112.275 165.961 112.291 166.304C112.308 166.647 112.416 166.98 112.604 167.267L160.776 240.355C161.045 240.763 161.46 241.053 161.936 241.165L184.349 246.438C184.727 246.527 185.123 246.499 185.484 246.358C185.846 246.217 186.156 245.969 186.373 245.647C186.591 245.325 186.705 244.945 186.702 244.557C186.698 244.169 186.576 243.791 186.353 243.474L133.464 168.272C133.321 168.067 133.138 167.892 132.927 167.758C132.716 167.624 132.481 167.532 132.235 167.489L114.539 164.329C114.42 164.307 114.299 164.296 114.178 164.296Z" fill="#3F3D56"/>
<path id="Vector_26" d="M144.227 216.553L145.566 230.038L166.693 227.941C168.481 227.764 170.125 226.883 171.264 225.493C172.403 224.103 172.944 222.317 172.766 220.529C172.589 218.741 171.708 217.096 170.318 215.957C168.928 214.819 167.142 214.278 165.354 214.456L144.227 216.553Z" fill="#FFB9B9"/>
<path id="Vector_27" d="M125.857 214.991C125.887 219.589 127.734 223.989 130.995 227.231C134.255 230.474 138.665 232.296 143.263 232.302H146.737L149.266 211.226L128.326 203.688L125.857 214.991Z" fill="#E6E6E6"/>
<path id="Vector_28" d="M570.557 37H530.557V43H570.557V37Z" fill="#E6E6E6"/>
<g id="Group 6">
<path id="Vector_29" d="M855 0H443V217H855V0Z" fill="#E5AFF8"/>
<path id="Vector_30" d="M455 205H843V12H455V205Z" fill="white"/>
<path id="Vector_31" d="M623 40H485V178H623V40Z" fill="#3F3D56"/>
<path id="Vector_32" d="M589.557 103C591.766 103 593.557 101.209 593.557 99C593.557 96.7909 591.766 95 589.557 95C587.348 95 585.557 96.7909 585.557 99C585.557 101.209 587.348 103 589.557 103Z" fill="#7DFABB"/>
<path id="Vector_33" d="M574.557 89C576.766 89 578.557 87.2091 578.557 85C578.557 82.7909 576.766 81 574.557 81C572.348 81 570.557 82.7909 570.557 85C570.557 87.2091 572.348 89 574.557 89Z" fill="#7DFABB"/>
<path id="Vector_34" d="M573 99C571.528 99.0003 570.085 99.4091 568.832 100.181C567.728 98.5211 566.431 96.9984 564.967 95.6452C564.984 95.4317 565 95.2178 565 95C565.001 93.4304 564.54 91.8951 563.675 90.5857C562.809 89.2763 561.577 88.2507 560.132 87.6368C558.688 87.0229 557.094 86.8478 555.551 87.1335C554.008 87.4192 552.582 88.1529 551.453 89.2431C549.311 88.9391 547.138 88.9201 544.991 89.1867C544.992 89.124 545 89.0631 545 89C545.002 87.661 544.667 86.3429 544.027 85.1667C543.387 83.9905 542.462 82.9937 541.337 82.2677C540.212 81.5418 538.923 81.1098 537.587 81.0116C536.252 80.9133 534.913 81.1518 533.694 81.7052C532.474 82.2586 531.413 83.1093 530.608 84.1792C529.803 85.249 529.279 86.5039 529.085 87.8288C528.89 89.1537 529.032 90.5061 529.496 91.7622C529.96 93.0183 530.732 94.1378 531.741 95.0181C530.401 96.1654 529.187 97.4503 528.116 98.8518C527.129 98.03 525.958 97.4582 524.703 97.1847C523.448 96.9111 522.145 96.9439 520.905 97.2802C519.665 97.6165 518.525 98.2465 517.58 99.1168C516.635 99.9872 515.914 101.072 515.477 102.28C515.04 103.488 514.9 104.784 515.07 106.057C515.24 107.331 515.714 108.544 516.452 109.596C517.19 110.647 518.17 111.506 519.31 112.098C520.45 112.691 521.715 113 523 113L523.025 112.999C523.012 113.331 523 113.664 523 114C523 116.013 523.243 118.018 523.724 119.973C521.346 120.868 519.235 122.352 517.588 124.286C515.941 126.22 514.813 128.541 514.308 131.031C513.804 133.521 513.941 136.098 514.706 138.52C515.471 140.943 516.838 143.131 518.681 144.88C520.523 146.629 522.779 147.881 525.238 148.519C527.697 149.157 530.278 149.16 532.738 148.528C535.199 147.895 537.458 146.648 539.304 144.903C541.15 143.158 542.522 140.972 543.292 138.551C548.857 139.621 554.62 138.766 559.635 136.127C560.147 137.332 560.947 138.394 561.965 139.218C562.983 140.042 564.188 140.603 565.473 140.853C566.759 141.103 568.086 141.033 569.339 140.65C570.591 140.267 571.73 139.583 572.657 138.657C573.583 137.731 574.267 136.591 574.65 135.339C575.033 134.086 575.103 132.759 574.853 131.473C574.603 130.188 574.042 128.983 573.218 127.965C572.394 126.947 571.332 126.147 570.127 125.635C571.859 122.347 572.832 118.712 572.975 114.999L573 115C575.122 115 577.157 114.157 578.657 112.657C580.157 111.157 581 109.122 581 107C581 104.878 580.157 102.843 578.657 101.343C577.157 99.8429 575.122 99 573 99Z" fill="#7DFABB"/>
<path id="Vector_35" d="M799 40H661V178H799V40Z" fill="#3F3D56"/>
<path id="Vector_36" d="M756.2 133.6C757.194 133.6 758 132.794 758 131.8C758 130.806 757.194 130 756.2 130C755.206 130 754.4 130.806 754.4 131.8C754.4 132.794 755.206 133.6 756.2 133.6Z" fill="#7DFABB"/>
<path id="Vector_37" d="M749.45 127.3C750.444 127.3 751.25 126.494 751.25 125.5C751.25 124.506 750.444 123.7 749.45 123.7C748.456 123.7 747.65 124.506 747.65 125.5C747.65 126.494 748.456 127.3 749.45 127.3Z" fill="#7DFABB"/>
<path id="Vector_38" d="M748.55 131.8C747.888 131.8 747.238 131.984 746.675 132.331C746.178 131.584 745.594 130.899 744.935 130.29C744.943 130.194 744.95 130.098 744.95 130C744.951 129.294 744.743 128.603 744.354 128.014C743.964 127.424 743.41 126.963 742.76 126.687C742.11 126.41 741.393 126.332 740.698 126.46C740.003 126.589 739.362 126.919 738.854 127.409C737.89 127.273 736.912 127.264 735.946 127.384C735.946 127.356 735.95 127.328 735.95 127.3C735.951 126.697 735.8 126.104 735.512 125.575C735.224 125.046 734.808 124.597 734.302 124.27C733.795 123.944 733.215 123.749 732.614 123.705C732.013 123.661 731.411 123.768 730.862 124.017C730.313 124.266 729.836 124.649 729.474 125.131C729.111 125.612 728.876 126.177 728.788 126.773C728.701 127.369 728.764 127.978 728.973 128.543C729.182 129.108 729.529 129.612 729.983 130.008C729.381 130.524 728.834 131.103 728.352 131.733C727.908 131.364 727.381 131.106 726.816 130.983C726.251 130.86 725.665 130.875 725.107 131.026C724.549 131.177 724.036 131.461 723.611 131.853C723.186 132.244 722.861 132.733 722.665 133.276C722.468 133.82 722.405 134.403 722.482 134.976C722.558 135.549 722.771 136.095 723.103 136.568C723.435 137.041 723.877 137.428 724.389 137.694C724.902 137.961 725.472 138.1 726.05 138.1L726.061 138.099C726.056 138.249 726.05 138.399 726.05 138.55C726.05 139.456 726.159 140.358 726.376 141.238C725.306 141.64 724.356 142.308 723.615 143.179C722.874 144.049 722.366 145.093 722.139 146.214C721.912 147.334 721.974 148.494 722.318 149.584C722.662 150.674 723.277 151.659 724.106 152.446C724.935 153.233 725.951 153.797 727.057 154.084C728.164 154.371 729.325 154.372 730.432 154.087C731.539 153.803 732.556 153.241 733.387 152.456C734.217 151.671 734.835 150.687 735.182 149.598C737.686 150.079 740.279 149.695 742.536 148.507C742.766 149.05 743.126 149.527 743.584 149.898C744.042 150.269 744.584 150.522 745.163 150.634C745.742 150.746 746.339 150.715 746.902 150.543C747.466 150.37 747.979 150.062 748.395 149.645C748.812 149.229 749.12 148.716 749.293 148.152C749.465 147.589 749.496 146.992 749.384 146.413C749.272 145.834 749.019 145.292 748.648 144.834C748.277 144.376 747.8 144.016 747.257 143.786C748.037 142.306 748.475 140.671 748.539 138.999L748.55 139C749.505 139 750.42 138.621 751.096 137.946C751.771 137.27 752.15 136.355 752.15 135.4C752.15 134.445 751.771 133.53 751.096 132.854C750.42 132.179 749.505 131.8 748.55 131.8Z" fill="#7DFABB"/>
<path id="Vector_39" d="M770.322 99.4417C771.316 99.4417 772.122 98.6358 772.122 97.6417C772.122 96.6476 771.316 95.8417 770.322 95.8417C769.328 95.8417 768.522 96.6476 768.522 97.6417C768.522 98.6358 769.328 99.4417 770.322 99.4417Z" fill="#7DFABB"/>
<path id="Vector_40" d="M774.556 91.2367C775.55 91.2367 776.356 90.4308 776.356 89.4367C776.356 88.4425 775.55 87.6367 774.556 87.6367C773.562 87.6367 772.756 88.4425 772.756 89.4367C772.756 90.4308 773.562 91.2367 774.556 91.2367Z" fill="#7DFABB"/>
<path id="Vector_41" d="M768.248 90.2781C768.068 89.6407 767.715 89.0655 767.228 88.6169C767.812 87.9363 768.314 87.1886 768.721 86.3896C768.816 86.3709 768.91 86.3516 769.005 86.325C769.685 86.134 770.294 85.7471 770.755 85.2124C771.217 84.6778 771.511 84.019 771.6 83.3184C771.69 82.6178 771.572 81.9063 771.26 81.2726C770.948 80.6389 770.456 80.1111 769.846 79.7549C769.716 78.7899 769.459 77.8463 769.082 76.9488C769.109 76.9418 769.137 76.9377 769.164 76.9301C769.744 76.7675 770.274 76.4618 770.706 76.0411C771.137 75.6205 771.456 75.0982 771.633 74.5223C771.811 73.9464 771.84 73.3352 771.72 72.7447C771.6 72.1543 771.333 71.6035 770.945 71.1429C770.556 70.6822 770.058 70.3264 769.497 70.1082C768.935 69.8899 768.328 69.8161 767.73 69.8935C767.132 69.9709 766.564 70.1971 766.076 70.5513C765.589 70.9055 765.198 71.3764 764.94 71.9209C764.28 71.4807 763.575 71.1112 762.837 70.8186C763.073 70.2906 763.178 69.7137 763.143 69.1367C763.108 68.5596 762.935 67.9994 762.638 67.5034C762.341 67.0074 761.929 66.5902 761.437 66.2871C760.945 65.984 760.387 65.8039 759.81 65.762C759.234 65.7201 758.656 65.8178 758.125 66.0466C757.594 66.2754 757.126 66.6287 756.76 67.0767C756.395 67.5246 756.143 68.0539 756.025 68.6199C755.908 69.1859 755.928 69.7719 756.085 70.3283L756.088 70.3392C755.943 70.374 755.797 70.4094 755.652 70.4503C754.78 70.696 753.941 71.0458 753.153 71.4923C752.475 70.5716 751.575 69.8381 750.536 69.3607C749.497 68.8833 748.354 68.6777 747.215 68.763C746.075 68.8484 744.975 69.222 744.019 69.8487C743.063 70.4755 742.282 71.3349 741.749 72.3462C741.216 73.3576 740.949 74.4877 740.973 75.6307C740.996 76.7736 741.31 77.8917 741.884 78.8802C742.458 79.8687 743.274 80.6951 744.255 81.2819C745.236 81.8687 746.35 82.1966 747.493 82.2348C747.708 84.7757 748.781 87.1677 750.536 89.0178C750.076 89.3867 749.714 89.8627 749.482 90.4042C749.249 90.9456 749.152 91.5359 749.201 92.1233C749.25 92.7106 749.442 93.2771 749.761 93.7729C750.079 94.2686 750.515 94.6786 751.029 94.9668C751.543 95.255 752.12 95.4125 752.709 95.4256C753.298 95.4387 753.882 95.307 754.408 95.042C754.935 94.777 755.388 94.3868 755.728 93.9057C756.069 93.4245 756.286 92.8672 756.361 92.2826C757.996 92.632 759.689 92.6101 761.315 92.2187L761.318 92.2298C761.446 92.6852 761.662 93.1109 761.954 93.4826C762.247 93.8543 762.61 94.1648 763.022 94.3962C763.435 94.6276 763.889 94.7755 764.358 94.8313C764.828 94.8872 765.304 94.85 765.759 94.7217C766.215 94.5935 766.64 94.3769 767.012 94.0841C767.383 93.7914 767.693 93.4283 767.925 93.0156C768.156 92.6029 768.303 92.1488 768.359 91.679C768.414 91.2093 768.377 90.7333 768.248 90.2781Z" fill="#7DFABB"/>
<path id="Vector_42" d="M700.162 74.9815C701.156 74.9815 701.962 74.1756 701.962 73.1815C701.962 72.1874 701.156 71.3815 700.162 71.3815C699.168 71.3815 698.362 72.1874 698.362 73.1815C698.362 74.1756 699.168 74.9815 700.162 74.9815Z" fill="#7DFABB"/>
<path id="Vector_43" d="M691.401 75.7189C692.396 75.7189 693.201 74.913 693.201 73.9189C693.201 72.9247 692.396 72.1189 691.401 72.1189C690.407 72.1189 689.601 72.9247 689.601 73.9189C689.601 74.913 690.407 75.7189 691.401 75.7189Z" fill="#7DFABB"/>
<path id="Vector_44" d="M695.447 78.8312C695.001 79.3204 694.699 79.924 694.575 80.5746C693.689 80.4378 692.789 80.407 691.895 80.4828C691.83 80.4124 691.763 80.3423 691.691 80.2763C691.169 79.7996 690.519 79.487 689.822 79.3774C689.124 79.2678 688.409 79.366 687.767 79.6599C687.125 79.9537 686.583 80.4301 686.21 81.0297C685.836 81.6294 685.648 82.3256 685.667 83.0317C684.916 83.6514 684.251 84.3678 683.688 85.1623C683.668 85.1428 683.65 85.1217 683.629 85.1025C683.184 84.6957 682.645 84.407 682.06 84.2628C681.475 84.1186 680.863 84.1235 680.28 84.2772C679.697 84.4309 679.163 84.7284 678.725 85.1424C678.287 85.5564 677.96 86.0736 677.774 86.6468C677.588 87.2199 677.549 87.8306 677.66 88.4228C677.771 89.015 678.029 89.5698 678.411 90.0364C678.792 90.5029 679.284 90.8663 679.843 91.0932C680.401 91.3201 681.007 91.4032 681.606 91.335C681.581 92.1281 681.639 92.9217 681.78 93.7027C681.208 93.7815 680.662 93.9971 680.191 94.3313C679.719 94.6654 679.334 95.1082 679.07 95.6223C678.806 96.1364 678.669 96.7066 678.672 97.2847C678.674 97.8628 678.816 98.4317 679.085 98.9434C679.354 99.4551 679.742 99.8945 680.217 100.224C680.691 100.554 681.238 100.765 681.812 100.839C682.385 100.913 682.968 100.847 683.511 100.648C684.053 100.449 684.54 100.123 684.93 99.6956L684.937 99.6868C685.044 99.792 685.151 99.8971 685.262 99.999C685.931 100.61 686.671 101.137 687.467 101.571C687.043 102.632 686.895 103.784 687.039 104.918C687.182 106.053 687.611 107.132 688.285 108.055C688.96 108.978 689.858 109.714 690.895 110.195C691.932 110.676 693.074 110.885 694.214 110.804C695.354 110.722 696.455 110.352 697.413 109.728C698.371 109.105 699.155 108.248 699.692 107.238C700.228 106.229 700.499 105.1 700.479 103.957C700.459 102.814 700.149 101.694 699.578 100.704C701.622 99.1791 703.086 97.0045 703.731 94.5373C704.287 94.7329 704.882 94.789 705.465 94.7007C706.048 94.6124 706.6 94.3825 707.073 94.031C707.546 93.6795 707.926 93.2172 708.178 92.6848C708.431 92.1523 708.549 91.566 708.522 90.9773C708.496 90.3885 708.325 89.8153 708.025 89.308C707.725 88.8008 707.305 88.3749 706.802 88.0678C706.299 87.7608 705.728 87.5819 705.14 87.5469C704.551 87.5119 703.963 87.6219 703.427 87.8671C702.86 86.2938 701.948 84.8677 700.757 83.6937L700.765 83.6857C701.084 83.3367 701.332 82.9281 701.493 82.4833C701.655 82.0385 701.727 81.5663 701.706 81.0935C701.685 80.6208 701.571 80.1569 701.37 79.7284C701.169 79.2998 700.886 78.915 700.537 78.596C700.187 78.2769 699.778 78.0299 699.333 77.8691C698.888 77.7082 698.416 77.6367 697.943 77.6585C697.471 77.6803 697.007 77.7952 696.579 77.9964C696.15 78.1976 695.766 78.4813 695.447 78.8312Z" fill="#7DFABB"/>
</g>
<path id="Vector_45" d="M746.557 37H706.557V43H746.557V37Z" fill="#E6E6E6"/>
<path id="Vector_46" d="M25.1764 510.243C39.5961 529.554 69.5284 531.587 69.5284 531.587C69.5284 531.587 76.082 502.31 61.6623 482.999C47.2427 463.688 17.3103 461.655 17.3103 461.655C17.3103 461.655 10.7568 490.932 25.1764 510.243Z" fill="#7DFABB"/>
<path id="Vector_47" d="M98.6331 517.503C89.1181 530.245 69.3666 531.587 69.3666 531.587C69.3666 531.587 65.0421 512.268 74.5572 499.525C84.0723 486.782 103.824 485.441 103.824 485.441C103.824 485.441 108.148 504.76 98.6331 517.503Z" fill="#7DFABB"/>
<path id="Vector_48" d="M519.557 575.656H0V577.897H519.557V575.656Z" fill="#3F3D56"/>
</g>
<defs>
<clipPath id="clip0_17_2">
<rect width="854.557" height="577.897" fill="white"/>
</clipPath>
</defs>
</svg>
